<?xml version="1.0" encoding="UTF-8"?>
<svg id="Layer_1" data-name="Layer 1" xmlns="http://www.w3.org/2000/svg" viewBox="0 0 1137 832">
  <defs>
    <style>
      .cls-1 {
        fill: #333;
      }

      .cls-2 {
        fill: #ff6f00;
      }
    </style>
  </defs>
  <g>
    <path class="cls-2" d="m660.49,237.02s-.01.03-.01.05h0s0-.04.01-.06c0,0,0,0,0,0Zm0,0s-.01.03-.01.05h0s0-.04.01-.06c0,0,0,0,0,0Zm0,0s-.01.03-.01.05h0s0-.04.01-.06c0,0,0,0,0,0Zm34.37,65.19c-.19,1.31-.45,2.58-.85,3.79.41-1.21.67-2.49.86-3.8,0,0-.01,0-.02,0Zm-4.62-58.03s-.01.02-.02.04h0s0,.02,0,.02c0-.02.01-.04.02-.06h0Zm-.03-.01s-.02-.01-.03-.01c0,.02.03.05.03.06,0-.02,0-.03,0-.05Zm-13.61-11.19h0c.08-.14.17-.27.25-.4-.08.13-.17.26-.25.4Zm-.45.06c.15-.02.29-.04.45-.05h0c-.15.01-.3.03-.45.05Zm-1.81,66.33h0s-.02-.01-.02-.02l.06.07s-.02-.04-.03-.06Zm-2.24-9.15h-.08l.08.09s0-.06,0-.09Zm-.14-2.01h0s.02,0,.03-.02c-.01.01-.02.02-.03.02Zm-8.96-53.15h0s.03-.02.05-.04c-.02.01-.03.03-.05.04Zm-2.04,43.64c.15.14.3.29.45.44h0c-.15-.15-.3-.3-.45-.44Zm-.5-41.67s-.03.03-.05.04c.01,0,.03,0,.04.01-.02.08-.04.16-.05.24.01-.05.02-.1.03-.14.01-.03.02-.07.02-.1,0-.02,0-.04.01-.06,0,0,0,0,0,0Zm-19.68,129.24s0-.02-.01-.02c-.02-.05-.05-.08-.07-.13.01-.03.02-.04.03-.07h0s0-.04.01-.06c-.02.05-.04.1-.06.14h-.01c.07.14.14.28.21.41-.03-.09-.07-.18-.1-.27Zm-6.44-171.02s0,.02,0,.02l.02.02s-.02-.03-.02-.04Zm-.02-.03h0s0,.01,0,.01t0-.01Zm-3.55,2.48s.01.02.02.02.02.01.03.02h0s-.04-.03-.06-.05Zm-.03-.02h0s0,0,0,0c.01.05.02.08.03.13-.01-.04-.02-.08-.03-.12Zm-.34,91.97s-.01.02-.02.03c.01,0,.02,0,.03-.01,0,0-.01-.01-.01-.02Zm-.07.05v.05s.03-.04.05-.06l-.05.02Zm-3-17.54s.06,0,.1-.01c0-.03,0-.06,0-.09l-.1.1Zm-2.43-57.72c-.06.28-.11.56-.14.85.03-.29.08-.57.14-.86h0Zm-1.29-10.39c-.08.79-.17,1.6-.26,2.39.09-.79.17-1.6.26-2.4h0Zm-.62,4.99c.01.08.02.16.03.24.01-.05.02-.09.03-.14v-.02l-.06-.08Zm-9.54,13.52s-.02.01-.03.02c-.02.02-.04.03-.06.04l.1.06s0-.08,0-.12Zm-3.32-13.86c-.29.08-.63.11-.95.16.32-.05.67-.08.95-.15,0,0,0,0,0-.01Zm-1.16-2.06h0s0,.03.01.04c0,0,0,0,0,0,0-.01-.01-.02-.02-.03Zm-3.54,60.04s0,.05-.01.07l.08-.08s-.05.01-.07.01Zm-9.52-92.2s-.03.03-.04.05l.05-.05h0Zm-21.35,4.58s-.06-.02-.08-.03l.13.11s-.03-.06-.05-.08Zm-10.01,19s0,0,0,.01c.68.55,1.36,1.11,2.05,1.67-.69-.56-1.37-1.12-2.06-1.69Zm1.52,43.75s0,0,0,0c.11.29.21.58.32.87-.11-.29-.21-.59-.32-.88Zm-.05-.12h0s.01.01.01.01c.02.01.05.02.07.03h0s-.05-.03-.08-.05Zm-16.79.61s-.01.03-.02.05c.02,0,.03-.01.05-.02-.01-.01-.02-.02-.03-.03Zm-.06.06s0,.03.01.04c.01-.02.02-.03.03-.05-.01,0-.03.01-.04.01Zm-.99.21c.23-.02.45-.05.67-.11-.22.06-.44.09-.67.11Zm-4.61,37.05v.06s.05.01.07.02l-.07-.08Zm-38.99-2.25s0,.01-.01.02c.01,0,.02,0,.03-.01,0,0-.02-.01-.02-.01Zm-.07.04s.02.04.02.06c.01-.02.03-.05.04-.07-.02,0-.04.01-.06.02Zm-4.89-.43c.39.15.8.28,1.2.37-.41-.1-.81-.23-1.2-.37Zm-12.74,2.9c.05.2.1.39.16.59h.01c-.07-.19-.12-.39-.17-.59Zm.09.76c-.21.24-.42.5-.62.75.12-.16.25-.31.38-.46.08-.1.15-.19.24-.28h0,0Zm-11.31,66.98s-.05,0-.05,0c.02.02.03.04.05.06.01-.01.03-.03.04-.04,0,0-.02,0-.04-.01Zm-9.92-82.21s-.01.02-.01.03h.05s-.03-.02-.04-.03Zm-.05.03s0,.05.01.07c0-.02.02-.05.02-.07-.01,0-.02,0-.03,0Zm-6.13-10.73s-.02.01-.03.01h0s-.05.02-.08.03c.05.02.1.03.15.05l-.03-.08Zm-1.34.41c.28-.06.57-.14.86-.24-.29.1-.59.18-.86.24Zm-.82.14c.26-.02.54-.07.82-.14-.28.07-.56.11-.82.14Zm-7.19,29.45c.37.2.75.39,1.13.59,0,0,0,0,0,0-.38-.19-.76-.39-1.13-.58Zm.89-32.83h0s0,0,0,.01c-.02.02-.03.04-.04.06.03,0,.06-.02.1-.02-.02-.02-.03-.03-.05-.05Zm-.26-.19c.08.07.16.12.25.19h0c-.09-.06-.17-.12-.25-.19Zm209.59-14.66s-.01.03-.01.05h0s0-.04.01-.06c0,0,0,0,0,0Zm0,0s-.01.03-.01.05h0s0-.04.01-.06c0,0,0,0,0,0Z"/>
    <path class="cls-2" d="m628.39,454.38c-4.58-4.77-8.8-9.81-11.55-15.86-4.95-10.9-8.45-22.29-10.19-34.14-1.25-8.58-2.32-17.1-7.42-24.54-.9-1.32-.85-3.39-.95-5.13-.15-2.51-.04-5.03-.04-7.55-.56,1.72-.29,3.8-1.17,5.12-2.43,3.66-1.15,6.49,1.21,9.35.03.03-.16.25-.64.97-1.85-3.26-3.55-6.26-5.24-9.24-.25.05-.5.1-.74.15-1.2,6.03,2.02,11.96,1.12,18.42-2.43-4.62-.92-10.19-5.23-14.15-.94,5.5-2.54,10.56,1.49,15.26,1.32,1.54,2.32,3.42,3.21,5.26.54,1.12.57,2.47.83,3.72-.23.05-.45.11-.68.16-1.52-2.23-3.04-4.45-4.89-7.16-.24,3.47-1.07,6.22-.47,8.6,1.13,4.51,3.05,8.83,4.71,13.2.64,1.68,1.9,1.92,3.43,1.07,2.23-1.23,3.16-3.31,3.01-5.65-.28-4.2-.89-8.38-1.32-12.58-.29-2.91-.51-5.84-.76-8.76.3-.04.61-.07.92-.11,1.11,3.96,2.13,7.95,3.35,11.88,1.2,3.88,2.6,7.69,4.04,11.88-1.31-.86-2.36-1.54-3.64-2.38-.26,6.36-6.74,7.6-9.14,12.26-2.72-7.12-6.13-13.88-6.31-21.37-.11-4.6-1.61-7.52-5.78-9.18-.48-.2-.92-.5-1.71-.92.41.9.65,1.42,1,2.19-2.57-.56-3.89-1.54-3.66-4.25.15-1.71-.55-3.49-.79-5.25-.39-2.82-1.07-5.66-1.01-8.48.17-9.71-5.44-16.88-10.31-24.4-.34-.52-.95-.95-1.52-1.23-5.97-2.94-11.74-6.51-18-8.56-7.23-2.37-14.18-4.74-19.87-10.04-2.77-2.58-6.23-2.88-9.77-1.6-1.5.54-2.98,1.15-4.42,1.82-5.79,2.69-11.8,3.67-18.1,2.38-1.17-.24-2.33-.57-3.49-.87.07-.31.13-.62.2-.93,1.42.2,2.85.34,4.26.61,5.26,1.02,10.28.2,15.12-1.93,1.63-.72,3.26-1.44,4.85-2.26,5.3-2.72,10.04-1.68,14.21,2.25,3.61,3.4,7.86,5.27,12.62,6.45,3.99.99,7.85,2.48,11.77,3.73,2.95.94,5.85,2.08,8.86,2.71,2.81.59,4.27-1.04,3.43-3.73-1.75-5.56-4.58-10.24-10.62-12.21-2.75-.9-5.65-1.84-7.91-3.53-4.02-3-8.42-4.88-13.18-6.12-7.52-1.96-12.71-6.68-16.76-13.22-4.37-7.05-4.64-14.6-3.66-22.43.38,2.51.38,5.04.38,7.57-.01,12.37,8.88,23.7,20.79,26.89,3.77,1.01,7.38,2.65,11,4.19,3.52,1.49,6.84,3.5,10.42,4.77,8.87,3.15,12.9,9.11,11.95,18.42.55-.21,1.04-.41,1.87-.75.43,2.93.82,5.59,1.05,7.21,4.44,3.1,4.31,8.57,8.02,11.31-.71-1.73-1.36-3.31-2.01-4.9.29-.14.57-.29.87-.43,3.43,2.37,6.4,5.57,6.47,9.79.09,6.69-.85,13.38-1.37,20.08,0,.08-.31.14-.83.34-.17-1.04-.51-2.02-.46-2.96.18-2.9.45-5.81.81-8.69.42-3.4-.18-6.57-2.05-9.42-.61-.94-1.58-1.63-2.39-2.44-.25.1-.49.2-.74.29-.1,1.16-.32,2.32-.26,3.46.24,4.49.52,8.98.88,13.46.16,2.05.41,4.11.82,6.12.51,2.44,2.33,3.95,4.66,3.67,2.73-.33,3.42,1.01,3.89,3.1.1.44.42.83.64,1.24-.43-2.64-1.6-5.13-1.72-7.68-.12-2.54.75-5.15,1.25-7.72.2-1.01.57-1.98.87-2.98,2.91-9.95,1.76-19.41-2.95-28.65-1.5-2.94-2.29-6.34-2.84-9.62-.52-3.12-.48-6.37-.33-9.55.37-7.95-5.83-11.08-10.83-15.11-.07-.06-.33.1-.72.23-.76,2.77.29,5.29,1.7,7.59,3.14,5.13,4.33,10.61,4.46,16.62.1,4.23,1.38,8.43,2.2,12.63.24,1.26.72,2.47,1.09,3.71-1.31-1-2-2.19-2.62-3.42-2.44-4.77-2.47-9.98-2.59-15.13-.11-4.67-1.45-8.83-4.14-12.63-1.82-2.55-4.39-4.88-2.87-8.57.06-.14,0-.5-.07-.51-2.63-.61-1.47-2.73-1.28-4,.81-5.56,2.01-11.06,2.87-16.62.34-2.17.83-4.67.11-6.58-2.05-5.41-4.81-10.55-7.06-15.89-1.06-2.53-1.78-5.26-2.28-7.96-.65-3.49-.56-7.16-1.47-10.57-1.19-4.47-.95-8.67.67-12.91.39-1.02.6-2.11.89-3.16-3.27,5.25-6.69,10.32-4.54,16.99.94,2.92.81,6.18,1.16,9.29-1.22-4.59-2.23-9.15-2.9-13.77-.26-1.78-.19-3.85.49-5.47,1.82-4.3,4.01-8.45,6.14-12.61,1.07-2.07,1.29-4.1.2-6.18-.87-1.66-1.61-3.46-2.77-4.89-2.54-3.11-4.69-6.67-9.16-9.01,5.16,5.54,6.12,7.2,5.91,9.73-1.6-1.08-3.2-2.37-4.98-3.33-1.78-.95-3.24-.53-3.09,1.83.11,1.75.44,3.51.89,5.21.74,2.79,2.9,3.75,5.57,3.79,2.64.04,2.35-2.18,2.84-3.86,1.87,5.37,1.29,10.41-1.39,15.34-2.06,3.8-3.02,4.25-7.18,3.09-3.87-1.08-7.77-2.05-11.69-2.93-2.07-.46-4.22-.62-6.33-.92,3.18,1.14,6.29,2.84,9.56,3.26,2.77.37,5.51.16,8.09,1.62,1.23.69,2.82.76,4.2,1.66-2.1-.35-4.21-.69-6.87-1.13.64,1.38.9,3.24,1.93,3.89,5.78,3.68,6.2,9.63,7.11,15.46.82,5.26,1.74,10.52,2.72,15.76.17.94.85,1.78,1.3,2.67.23-.04.47-.08.7-.12-.3-5.63-.59-11.26-.89-16.88.32-.02.64-.04.95-.06,3.18,9.79.64,20.34,3.52,30.22,4.65-4.68,2.01-10.19,1.96-15.66,2.94,3.3,3.51,12.54,1.8,16.85-1.6,4.04-2.41,8.43-3.17,12.73-.81,4.58.57,8.68,3.55,12.32,3.05,3.71,4.57,8.15,5.39,12.83.14.77.02,1.59-.52,2.5-.51-1.95-.85-3.96-1.56-5.83-.96-2.5-1.68-5.38-3.43-7.22-5.12-5.39-5.84-11.85-6.05-18.76-.14-4.33-.64-8.82-1.95-12.92-2.23-6.99-4.3-13.85-4.62-21.33-.24-5.62-1.92-11.19-3.11-16.75-.21-.99-1.04-2.01-1.87-2.67-2.09-1.66-4.04-3.27-4.49-6.17-.24-1.53-1.4-1.98-2.99-1.69-1.16.22-2.55.42-3.57-.01-5.75-2.41-12.22-3.13-17.22-7.33-.99-.83-2.17-1.44-3.27-2.15.23.26.45.52.67.79.44.54.88,1.07,1.34,1.59.23.26.46.51.7.76,4.17,4.26,9.44,6.31,15.18,7.27,4.59.77,8.1,3.1,11.01,6.7,4.76,5.87,6.04,12.71,6.22,19.97.08,3.16-.23,6.55.79,9.43,4.3,12.2,4.46,24.93,5.42,37.21-2.99,0-6.06.07-9.12-.01-10.11-.27-18.87-3.99-25.62-11.44-7.2-7.95-8.03-17.77-6.81-27.97.42-3.56,1.86-6.41,4.56-8.73,1.31-1.12,2.42-2.47,3.9-4-.95-.14-1.31-.2-1.67-.23-.28-.02-.6-.07-.83.05-5.39,2.87-10.43,5.94-10.91,13.04-.2,2.93-1.92,4.11-4.84,3.74-4.69-.59-8.88-2.41-12.11-5.96-.54-.59-.49-1.71-.72-2.59h0c-.84-.45-1.87-.73-2.49-1.39-2.03-2.19-3.04-5.36-6.14-6.48-.73-.26-1.66.05-2.5.1.12.86,0,1.87.42,2.54,1.78,2.82,3.77,5.52,5.58,8.33.25.38.39.83.52,1.3.05.19.1.37.15.56,0,0,0,.01,0,.01.05.2.1.39.16.59h.01c.43.15.99.19,1.21.5,3.35,4.49,8.2,7.03,12.64,10.17,2.88,2.04,6.1,4.73,7.27,7.84,3.29,8.79,7.23,17.02,13.7,23.96,1.82,1.95,1.18,2.93-1.43,3.56-3.36.81-6.98,1.24-9.93,2.86-7.68,4.23-15.26,5.2-23.41,1.53-1.96-.88-4.39-.72-6.59-1.04-.15.41-.3.82-.45,1.22,1.13.82,2.16,1.98,3.42,2.38,2.31.74,3.65,2.13,4.3,4.37.42,1.44.78,2.93,1.43,4.27.86,1.81.19,3.25-.31,5.02-.85,2.99-1.1,6.19-1.17,9.32-.02.9,1.4,1.83,2.16,2.75.3-.14.61-.28.91-.41.08,1.47.32,2.95.19,4.4-.25,2.95-1.1,5.89-1,8.82.36,10.08,1.09,20-.12,30.23-1.46,12.21-.34,24.74-.34,37.13.26,0,.53,0,.79,0,0-3.89.08-7.79-.02-11.68-.27-11.07-.88-22.11,1.84-33.06.86-3.46.48-7.26.45-10.9-.03-2.99-.68-6-.54-8.97.22-5.05,1.01-10.07,1.22-15.12.1-2.41.33-4.39,1.96-6.42,2.6-3.26,1.5-7.89-1.94-9.5v8.63c-.84-1.76-1.75-3.73-1.3-5.28.74-2.55-3.27-5.08-1.18-6.32-.72-1.04-1.56-2.25-2.41-3.47.28-.23.55-.46.83-.69,2.99.56,5.98,1.08,8.96,1.71.51.11,1.25.63,1.33,1.07.47,2.48,1.03,4.98,1.07,7.49.08,4.3-.41,8.61-.29,12.91.19,7.4.8,14.79.97,22.19.18,7.76.04,15.52.04,23.28h.59v-49.09c4.3,1.41,7.81,6.61,8.07,11,.19,3.16.67,6.31,1.03,9.46.34,2.97.95,5.93.98,8.9.12,11.8.05,23.61.05,35.42.38-1.59.55-3.17.57-4.76.09-5.87.38-11.76.09-17.62-.13-2.71-.46-5.21,1.24-7.51-.24.14-.47.31-.73.41-.16.06-.36.01-.52.01,0-3.93.21-7.86-.06-11.75-.33-4.73-.81-9.49-1.71-14.13-.46-2.38-1.8-4.65-3.05-6.8-1.31-2.24-2.98-4.27-4.53-6.46,1.75-1.25,3.31-2.26,4.73-3.42,1.98-1.61,2.55-4.37,1.49-6.6-1.32-2.75-3.39-.81-5.45-.78-.22-1-.44-2.04-.75-3.48,4.41-1,8.56-2.06,12.76-2.84,2.05-.38,3.75.33,3.71,3.15-.8.52-1.76,1.13-3.25,2.1,1.31,1.91,2.59,3.64,3.72,5.46.46.74.81,1.68.85,2.54.29,6.74.79,13.49.6,20.22-.1,3.56-1.36,7.12-2.29,10.63-.55,2.06-1.49,4.02-2.26,6.03,1.1-1.71,2.2-3.43,3.3-5.15.38.07.77.14,1.16.2-.37,10.48-2.37,20.99-.57,28.68.56-12.05,1.25-26.84,1.93-41.62.31-.21.63-.43.94-.65,4.61,3.41,8.57,8.34,15.68,6.68-3.66,13.85-1.25,27.21-.91,40.54v-19.36c.29-.08.58-.17.87-.26,1.08,2.82,2.16,5.65,3.27,8.56.01-3.48-1.12-6.43-3.02-9.22-.78-1.14-1.22-2.75-1.23-4.14-.01-2.85.26-5.72.64-8.55.18-1.34.88-2.62,1.34-3.92.22-.61.64-1.23.63-1.83-.12-3.64-.07-7.32-.57-10.92-.89-6.41-.23-12.69.96-19.43,3.73,1.73,7.2,3.56,10.85,4.97,3.71,1.44,4.68,4.15,4.66,7.73-.03,5.35.03,10.7.16,16.05.26,10.48.63,20.97.9,31.45.03,1.31-.2,2.63-.3,3.95,2.91-15.21-.61-30.54.96-45.89.91.61,1.72,1.24,1.94,2.03,2.03,7.21,4.03,14.31,2.5,22.1-1.11,5.61-1.02,11.52-.99,17.29.05,7.85,1.32,15.69-1.88,23.35-1.63,3.91-3.95,6.9-7.89,8.25-5.13,1.76-10.29,3.78-15.6,4.59-14.37,2.22-28.83,3.82-43.25,5.75-3.03.41-6.01,1.18-9.01,1.79l.22,1.27c1.12-.09,2.24-.12,3.34-.29,4.63-.74,9.23-1.63,13.87-2.29,13.46-1.93,26.97-3.56,40.39-5.75,6.38-1.04,13.06-2.65,16.78-8.67,6.17-9.97,10.75-20.61,11.33-32.58.15-3.14.23-3.22,3.12-2.3.88.28,1.87.59,2.75.46,2.78-.41,4.31,1,5.11,3.37,1.61,4.7,3.15,9.43,4.63,14.17.75,2.41.13,4.58-1.32,6.65-1.41,2.01-2.63,4.15-3.93,6.23,1.56-.96,2.58-2.3,3.74-3.5,2.11-2.17,4.8-1.62,5.6,1.29.46,1.66.65,3.58.31,5.25-.88,4.35-2.13,8.61-3.23,12.91.5-.59,1.01-1.21,1.55-1.85.44.54.78.95,1.3,1.6.9-5.57,1.57-10.79,2.62-15.93,1.42-6.94,4.05-7.81,9.54-3.46.96.77,1.92,1.54,3.46,2.78v-8.86c.63.77.93,1,1.04,1.3,3.42,9.52,7.73,18.91,4.44,29.44-.17.53-.16,1.12-.2,1.68-.23,3.47.73,5.41,4.09,6.53,3.35,1.11,6.88,1.84,10.39,2.31,1.89.25,3.91-.38,5.86-.61-1.01-1.7-1.76-3.66-3.09-5.06Zm-76.53-226c-.43.18-.85.36-1.28.54-.41-1-.7-2.06-1.24-2.99-.56-.96-1.36-1.8-2.19-2.87.17-.2.56-.66,1.14-1.34,1.1,2.47,3.77,3.98,3.57,6.65Zm-34.26,86.96c-1.78-2.18-3.13-4.72-4.67-7.1.2-.12.39-.25.6-.37,2.95,3.83,5.98,7.61,8.82,11.52,1.63,2.25,3.78,3.45,6.39,3.53,5.14.16,9.71,1.47,13.69,4.97,1.38,1.22,3.48,1.79,5.35,2.25,3.76.92,6.5,3.23,8.97,5.97,1.27,1.42,1.39,2.82-.02,3.44-1.03-1.58-1.66-3.31-2.9-4.26-1.83-1.39-3.98-2.72-6.18-3.19-4.42-.95-8.23-2.93-11.98-5.32-1.26-.8-3.02-.81-4.55-1.17.35,1.73.28,3.7,1.13,5.14,2,3.37,5.37,4.7,9.18,5.23,3.21.45,6.36,1.22,9.54,1.85-.05.23-.09.45-.13.67-4.38-.83-8.8-1.49-13.13-2.54-4.86-1.18-7.16-5.39-10.02-8.98-3.2-4.02-6.85-7.67-10.09-11.65Zm-10.33,27.13c.26.25.52.5.78.74-.86,2.51-3.17,4.74-4.86,4.08,1.43-1.7,2.76-3.26,4.08-4.82Zm32.41,29.73c-4.07,1.19-7.3-.19-10.12-2.76-4.46-4.08-7.68-8.66-6.37-15.26.41-2.04.06-4.23.06-6.28,3.05.32,5.74.6,9.1.94-2.12-4.97-3.86-9.05-8.52-10.93.12-.2.25-.4.38-.6.91.42,1.83.83,2.74,1.25,1.87.86,3.67,1.98,5.63,2.54,3.61,1.03,5.17,3.21,5.39,6.93.42,7.19,1.13,14.36,1.71,21.55.06.83,0,1.67,0,2.62Zm21.97-14.49c4.1,1.74,9.14,13.08,9.14,20.66-5.25-6.07-9.32-12.37-9.14-20.66Zm1.83,60.28c-1.14-14.15-.25-28.32,2.65-42.59,2.6,1.48,4.53,4.01,5.09,6.95,1.44,7.51-3.49,28.92-7.74,35.64Zm-76.38-137.55s-.02-.01-.03,0c0,0,.01.01.02.02.01.01.02.02.03.03,0-.02,0-.03-.01-.05Z"/>
    <path class="cls-2" d="m700.76,449.82c-.89-.19-1.78-.48-2.68-.57-8.03-.77-16.08-1.44-24.1-2.25-10.74-1.09-21.49-2.03-32.18-3.48-12.07-1.63-20.71-7.93-24.51-19.89-1.75-5.54-3.87-11.05-4.81-16.74-3.68-22.14-11.41-42.91-20.44-63.3-1.85-4.18-3.58-8.49-4.67-12.91-1.27-5.2-.78-10.48,1.45-15.55.05,4.64,1.28,8.56,6,11.23.51-.88,1-1.75,1.57-2.75,3.05,3.88,3.24,7.87,3.29,11.95.07,7.21.3,14.42.39,21.64.05,3.43,1.91,5.85,4.4,8.87-1.34-2.83-3.03-4.88-3.19-7.03-.45-6.16-.55-12.37-.26-18.53.31-6.65.69-13.17-3.37-19-.34-.49-.51-1.26-.45-1.87.3-3.13-1.27-5.04-3.76-6.65-3.26-2.11-3.2-2.22-1.29-5.48,5.06-8.62,19.94-13.77,29.47-10.15.48.18,1.05.83,1.07,1.28.01.42-.64.88-1.04,1.29-.73.72-2.2,1.5-2.11,2.07.29,1.94.58,4.42,1.87,5.58,2.5,2.24,3.47,4.73,3.3,7.87-.14,2.51-.39,5.02-.52,7.53-.09,1.58-.37,3.22-.03,4.73,1.91,8.66,1.62,17.14-1.49,25.49-.74,1.99-1.22,4.08-1.82,6.13.11.03.23.07.35.1l2.33-5.83c.37.03.74.06,1.11.09.14,2.24.51,4.49.37,6.7-.31,4.95-1.29,9.89-1.23,14.82.07,6.23.91,12.46,1.41,18.68-.07-5.52-.47-11.03-.78-16.54-.12-2.05-.42-4.2,0-6.17,1.57-7.32,1.54-14.71,1.49-22.13-.02-3.77.65-7.53,1.07-12.01,1.34,1.14,2.37,1.63,2.77,2.43,2.64,5.25,4.54,10.74,4.31,16.72-.16,4.24-.69,8.48-.68,12.72.02,4.86.51,9.73.73,14.59.12,2.62.69,5.37.1,7.84-3.16,13.34-1.07,26.72-.8,40.09.11-3.63.2-7.26.08-10.88-.29-9.02-.45-17.99,1.56-26.9.73-3.23.58-6.68.61-10.04.05-5.14-.11-10.29-.17-15.43-.07-4.75-.03-9.51-.25-14.25-.1-2.04-.81-4.05-1.1-6.09-.24-1.65.2-3.07,2.27-2.85,2.02.2,4.02.61,6.35.99v5.86c1.01-1.71,1.6-3.47,1.65-5.24.06-2.16-.37-4.33-.51-6.5-.16-2.24-.31-4.49-.33-6.73-.05-5.26-.02-10.52-.02-16.15,2.94,2.07,6.64,2.55,7.31,6.62-.59.16-1.13.3-2.05.54.93.61,1.53.99,2.22,1.45-.55.28-.99.5-1.75.88.87.47,1.43.77,2.08,1.13-.68.37-1.19.65-1.48.81.5,1.33.9,2.4,1.29,3.47,1.97,5.33,2.71,10.72,2.5,16.49-.31,8.29.34,16.61.57,24.92.16,0,.32,0,.48-.01-.33-14.39-.67-28.77-.99-42.82,1.2.99,2.56,2.42,4.21,3.39,1.27.75,1.57,1.4,1.44,2.86-.33,3.53-.48,7.09-.46,10.64.03,5.32.29,10.64.41,15.96.07,3.37-.15,6.76.11,10.11.54,6.71,1.55,13.39,1.94,20.11.33,5.74.07,11.52.07,15.59.77-10.83,1.99-23.34-.63-35.85-.56-2.69-.2-5.59-.12-8.39.16-5.61.54-11.21.57-16.82.03-3.67-.38-7.34-.61-11.31,1.69,2.4,3.07,4.37,4.59,6.54,5.7-6.12,6.06-11.71.52-16.75-1.03.82-2.23,1.79-3.43,2.75-.23-.14-.46-.26-.69-.39,1.17-2.59,2.2-5.25,3.55-7.74.96-1.78.72-2.96-1.17-3.46-1.79-.47-3.71-.45-5.53-.87-3.62-.83-7.36-1.45-10.75-2.86-3.13-1.3-3.56-3.31-3.06-6.74.38-2.57.45-5.19.68-7.78.04-.44.07-.99.33-1.28,2.81-3.13,5.6-6.27,9.91-7.46,3.78-1.03,7.53-2.2,11.41-3.35-.32-.43-.42-.69-.53-.69-7.21-.38-13.93.99-20.01,5.17-3.14,2.16-6.56,4.48-10.65,2.86-5.43-2.14-10.81-4.48-16.01-7.12-1.05-.54-1.74-2.86-1.65-4.3.18-2.78,1.03-5.52,1.62-8.27.84-3.89,3.41-6.09,7.06-7.28,3.74-1.22,7.52-2.37,11.17-3.82,4.47-1.77,8.6-1.45,12.58,1.23.93.63,1.88,1.25,2.86,1.8,4.02,2.27,8.43,2.89,13.09,2.89-1.09-1.17-2.34-1.98-3.67-2.61-2.77-1.3-5.7-2.29-8.36-3.79-2.29-1.29-2.15-2.9-.08-4.5,1.98-1.54,3.77-3.46,3.37-6.1-.53-3.53-1.62-6.96-5.01-8.97-5.24,4.21-5.69,10.35-1.21,15.11.55.59.71,1.55,1.05,2.33-.19.21-.38.42-.57.63-4.97-4.02-10.42-3.71-16.11-2.49-2.5.54-5.69,1.02-7.02-1.91-1.28-2.82,1.02-4.92,2.91-6.76,2.28-2.22,4.88-4.15,6.96-6.53,2.23-2.55,3.95-5.61,8.13-4.5.03,0,.15-.78.35-.86.52-.2,1.12-.21,1.69-.29.14.28.27.55.41.83-1.09.64-2.19,1.28-3.24,1.89,3.88,3.29,8.48,2.17,11.42-2.88-4.01-3.96-7.85-3.91-11.95.05-.6.57-1.53.79-2.93,1.47.65-1.8.99-2.75,1.41-3.91-2.68-.37-3.04-2.38-2.2-4.09.79-1.61,2.54-2.75,4.04-4.28.18.67.31.92.31,1.17-.04,4.08,1.75,5.41,5.29,3.48,3.79-2.06,5.99-5.55,6.97-9.75.11-.47-.19-1.03-.45-2.24-3.98,1.5-7.71,2.91-11.39,4.3-1.82-6.47-1.92-6.65-5.24-9.33-5.19,4.99-5.28,9.7-1.16,15.3,1.13,1.53,1.36,5.16.32,6.58-2.68,3.62-6.08,6.84-9.66,9.64-2.85,2.24-4.98,4.7-6.28,8.04-.92,2.34-2.09,4.6-3.29,6.81-1.78,3.27-3.88,6.36-5.49,9.71-2.22,4.63-5.19,8.22-10.4,9.5-1.16.28-2.29.7-3.43,1.09-7.09,2.41-14.13,4.98-21.28,7.19-5.48,1.7-7.98.55-10.82-4.56-.99-1.78-1.72-3.76-2.22-5.74-1.05-4.19-.13-6.68,3.74-8.67,5.66-2.91,9.05-7.56,11.83-13.08,1.49-2.95,3.61-5.71,5.92-8.1,4.33-4.48,9.17-8.47,13.47-12.96,3.79-3.96,8.72-4.96,13.6-6.21,3.24-.82,5.28-2.73,7.07-5.51,1.72-2.67,1.24-5.51,1.4-8.28.02-.33.04-.66.08-.99.03-.29.08-.57.14-.86h0c-.1-.07-.22-.12-.34-.18-.23-.11-.48-.21-.64-.34-.03-.02-.06-.05-.09-.08-.02-.02-.04-.05-.06-.07-.02-.03-.03-.07-.04-.1-.05-.19-.08-.38-.12-.57-.08-.38-.15-.77-.2-1.15-.06-.39-.12-.77-.17-1.16-.02-.19-.05-.39-.08-.58-.04-.3-.08-.61-.13-.92-.28,1.71-.54,3.43-.85,5.14-.61,3.37-.86,6.88-2,10.06-1.1,3.12-5.01,4.08-6.28,2.61-1.13.46-2.07.84-3.01,1.21-3.26,1.29-6.58,2.43-9.76,3.91-2.02.94-3.72,2.55-5.73,3.53-2.6,1.27-4.36.43-4.7-2.35-.58-4.73-.87-9.49-1.2-14.25-.2-2.8-.25-5.6-.37-8.4-.35-.05-.69-.08-1.04-.13-.36.77-.96,1.52-1.05,2.32-.55,5.09-1.02,10.19-1.43,15.29-.21,2.6.41,5.45-.47,7.76-2.49,6.55-5.5,12.91-8.42,19.29-1.66,3.63-3.91,4.89-7.55,4.62-4.57-.34-7.4-2.06-8.16-5.75-.61-2.96-.7-6.09-.54-9.13.18-3.55,1.07-7.05,1.31-10.59.38-5.34,1.79-10.19,4.66-14.8,2.78-4.46,4.91-9.34,7.32-14.03.05-.7.1-1.39.15-2.09-.2-.65-.4-1.29-.85-2.75-2.4,4.53-4.4,8.41-6.49,12.23-4.07,7.42-6.43,7.76-12.31,1.71-3.26-3.35-7.12-5-11.74-5.99-3.47-.74-6.56-3.29-9.79-5.1-.3-.17-.5-.81-.49-1.22.1-2.42-.29-4.74,1.58-7.05,3.27-4.01,1.09-10.91-3.77-13.17-2.91,2.69-4.3,6.06-4.07,9.37-4.01-1.05-7.86-2.05-11.89-3.1-.11,4.44,4.77,11.08,8.23,11.49,4.54.55,5.51,0,4.57-4.19-.06-.25,0-.53,0-1.1,1.22.96,2.25,1.77,3.43,2.69.08-.74.12-1.11.15-1.47h.56c.26,2.3.52,4.6.78,6.91h-10.46c0,.26-.01.52-.02.78,1.75.17,3.49.46,5.24.48,2.62.03,4.86.59,6.92,2.47,2.91,2.65,6.16,4.91,10.61,5.35-.96-.65-1.64-1.11-2.32-1.57,3.78.39,7.56.82,10.02,3.83,2.66,3.25,5.09,6.71,7.35,10.25,1.66,2.6,2.52,5.48.51,8.46-.28.41-.38,1.17-.2,1.62.99,2.53-.08,4.72-.82,7.06-.62,1.94-1.29,4.09-1.03,6.03.85,6.49,2.07,12.94,3.25,19.39.16.87.68,1.91,1.37,2.37.92.61,2.42,1.33,3.23.98,4.87-2.09,9.05-5.26,10.55-10.54,1.22-4.27,3.23-7.72,6.74-10.37,2.02-1.52,4.05-3.04,5.98-4.67,5.07-4.27,10.09-8.6,15.15-12.9.16-.14.46-.1.69-.15-5.82,5.75-11.74,11.33-18.14,16.27-4.49,3.46-7.87,7.19-9.44,12.8-1.53,5.45-5.64,9.09-10.95,10.83-2.35.77-2.58,1.78-1.89,3.61,1.63,4.3,3.28,8.58,5.02,12.83,1.21,2.95,1.45,5.68.46,8.94-1.04,3.4-1.12,7.2-.99,10.81.12,3.31,1.96,4.95,5.33,6.1q-4.14-4.02-3.82-5.92c3.43,2.86,6.87,5.74,10.26,8.57.26-1.2.39-2.22.72-3.17.71-2.11,1.92-4.14,2.22-6.3,1.49-10.75,6.6-18.41,17.49-21.4,6.8-1.87,11.63-6.27,15.4-12,1.08-1.65,1.92-3.44,2.9-5.15,1.94-3.39,4.4-5.99,8.63-6.37,4.2-.37,8.38-.96,12.56-1.45,1.31-.16,2.63-.29,3.94-.43-.25.83-.61,1.15-1.01,1.21-4.17.64-8.34,1.66-12.52,1.73-5.26.09-8.77,2.16-10.78,6.96-.47,1.12-1.09,2.19-1.73,3.22-3.77,6.1-8.07,11.46-15.61,13.27-3.05.73-6.13,2-8.75,3.69-3.46,2.23-5.45,5.63-5.02,10.11.87-.28,1.52-.72,2.01-1.29,2.62-3.09,6.04-4.71,9.94-5.39,2.49-.43,5.02-.67,7.54-.96,7.22-.82,13.87.6,20.27,4.25,6.58,3.76,8.6,10.91,13.04,16.22-2.03-2.05-3.53-4.51-5.38-6.67-2.53-2.95-4.98-6.17-8.1-8.38-8.38-5.96-17.82-4.66-27.14-2.86-4.77.92-8.44,3.75-11,7.73-2.47,3.86-4.7,7.91-6.58,12.08-1.12,2.48-2.04,5.38-1.9,8.04.52,9.85,1.46,19.65,5.59,28.85,1.26,2.8,1.88,5.88,2.76,8.84.78,2.6,1.35,5.29,2.36,7.8.37.9,1.78,1.37,2.71,2.03.37-.96,1.22-2.06,1.01-2.87-1.65-6.23-2.91-12.67-5.49-18.5-1.96-4.41-3.82-8.72-4.63-13.46-.35-2.01-.53-4.04-.79-6.06.25-.03.5-.06.74-.1.22,1.35.48,2.7.66,4.06.65,5.08,2.18,9.83,4.76,14.32,1.85,3.22,3.47,6.63,4.74,10.13,1.95,5.36,3.71,10.81,5.21,16.31,3.87,14.2,7.91,28.38,11.19,42.73,2.43,10.66,6.14,20.65,11.92,29.9,3.22,5.16,7.58,8,13.87,7.01,2.4-.38,4.84-.72,7.17-1.41,9.71-2.9,19.54-3.07,29.56-2.06,7.26.73,14.6.61,21.91.76,1.34.03,2.69-.52,4.04-.8-.03-.27-.06-.54-.1-.81Zm-35.93-121.92c.61,1.26,1.32,2.07,1.35,2.91.13,3.38.06,6.76-.3,10.2-2.87-2.54-.69-6.56-2.39-9.82.2-.49.59-1.47,1.34-3.29Zm-1.43-6.81c-.71,1.5-1.07,2.34-1.5,3.14-.69,1.29-1.5,1.74-2.87.65-1.13-.9-2.5-1.48-3.86-2.25-.76,1.02-1.39,1.87-2.2,2.97-.55-1.63-1.03-3.07-1.5-4.51h11.94Zm-13.32-82.33h5.76c.02.22.04.45.06.67-2.01.37-4.02.75-6.28,1.17.21-.85.37-1.47.46-1.83Zm.03-11.98c.11-.83,1.57-1.49,2.78-1.67-.95,2.01-1.91,4.03-3.02,6.37-2.63-2.05.03-3.28.23-4.7Zm-129.3-33.7c2.96.61,3.39,2.87,4.15,5.25-3.26-.37-3.38-2.88-4.15-5.25Zm68.82,95.97c-4.52,1.62-6.96,4.87-7.64,9.54-.56,3.87-1.09,7.74-1.66,11.61-.06.42-.3.82-.64,1.69-8.15-6.03-6.61-15.28-8.93-23.04.21-.14.43-.28.64-.43,1.27,1.52,2.54,3.03,3.8,4.55-.37-.15-.75-.29-1.12-.44-.17.6-.52,1.22-.48,1.81.23,3.74.29,7.54,2.67,10.73.4.54,1.35,1.3,1.66,1.15.62-.3,1.26-1.1,1.39-1.79.54-2.75.93-5.52,1.3-8.29.57-4.3,3.52-6.43,7.16-7.85,1.71-.67,3.53-1.02,5.54-.92-1.22.56-2.41,1.22-3.67,1.67Zm51.54,14.07c.3-.02.6-.04.9-.06.1,1.87.19,3.74.29,5.6-2.45-1.69-2.55-3.56-1.18-5.54Zm-2.65,10.08c-1.5-.87-2.71-1.58-4.51-2.62,1.84,3.07,4.23,5.5,3.15,8.95,2,.92,1.21,3,1.88,4.48-.59.02-1.7.12-1.71.03-.2-1.22-.26-2.46-.36-3.69-.21-.03-.54-.08-.78-.12-.03,0-.05,0-.08-.01-.15-.02-.25-.05-.25-.05.36-2.89-2.2-4.82-2.19-7.86-3.89,5.26-2.06,10.13,5.04,14.12,2.93-3.44,2.28-7.4,1.96-11.59.38.52,1.07,1.02,1.1,1.56.56,9.14,1.04,18.28,1.53,27.47-3.93,1.08-6.91.1-9.05-2.26-2.56-2.82-4.67-6.08-6.8-9.26-.94-1.4-.93-2.63.88-3.96,3.22-2.36,5.01-5.81,2.25-8.77-.56,1.23-1.04,2.37-1.58,3.49-.52,1.11-1.1,2.2-1.85,3.69-.53-3.51.21-6.22,3.09-8.93-1.59.45-2.44.69-3.53,1v-6.45c1.31.21,2.62.43,4.15.68.56-5.11-1.2-9.27-4.32-13.51,3.95,1.33,5.95,3.69,11.97,13.62Zm-15.47-104.2c.01.08.02.16.03.24.01-.05.02-.09.03-.14v-.02l-.06-.08Z"/>
    <path class="cls-2" d="m580.78,426.34c-2.48,6.35-4.05,13.08-6.8,19.29-2.95,6.68-8.82,10.27-15.86,11.86-1.01.23-2.1.13-3.16.19-.15-.26-.3-.51-.45-.77,1.3-1.36,2.46-2.91,3.93-4.04,4.82-3.7,8.42-8.04,8.83-14.55l.95,4.95c.26.03.52.06.78.1.56-1.22,1.31-2.38,1.66-3.66,2.28-8.22,4.64-16.42,6.61-24.73.61-2.6.1-5.47-.51-8.27-1.62,9.67-7.3,18.38-6.16,28.56-.26-.04-.52-.02-.55-.1-2.26-4.73-2.28-4.76-6.19-1.21-3.35,3.04-7.02,5.49-11.72,6.25.31-.21.59-.47.92-.64,7.14-3.58,10.63-10.03,13.44-17.04,2.16-5.39,4.19-10.85,6.6-16.14,1.08-2.37,2.93-4.38,4.73-7,.86,1.29,1.44,1.81,1.63,2.46,2.33,8.05,4.63,16.04,1.33,24.48Z"/>
    <path class="cls-2" d="m611.14,437.74c-.3,2.19-.38,4.44-.98,6.54-.76,2.67-2.06,5.17-2.9,7.82-.91,2.87-1.79,3.53-4.45,2.29-3.06-1.42-6.04-3.03-8.93-4.76-.6-.36-1.17-1.89-.89-2.43,2.27-4.32,2.54-8.96,2.68-13.68.06-2.13.42-4.32,1.02-6.36.86-2.93,2.48-3.33,4.75-1.36,3.44,3,4.41,7.11,4.71,11.38.21,3.05.04,6.12.04,9.18.3.07.6.14.9.21,2.88-2.25,3.33-5.48,3.08-8.98.33.05.65.1.98.15Z"/>
    <path class="cls-2" d="m565.15,438.06c-.19,1.76-.02,3.68-.68,5.24-.82,1.93-2.12,3.77-3.58,5.29-4.11,4.3-6.25,4.61-11.36,1.54-4.24-2.55-8.75-3.88-13.64-3.68-8.34.34-16.67.85-25,1.29-1.49.08-2.97.21-4.46.32-.02-.28-.05-.55-.07-.83,9.88-.79,19.77-1.52,29.64-2.41,3.33-.3,6.65-.88,9.91-1.62,4.06-.92,8.07-2.15,12.09-3.25.17.25.34.5.51.75-1.35,2.32-2.69,4.64-4.04,6.96.12.11.25.23.38.34,3.1-3.44,6.2-6.88,9.3-10.31.33.13.67.26,1,.39Z"/>
    <path class="cls-2" d="m473.43,329.23c-2.81-1.49-5.74-1.21-8.25,1.09-1.78,1.63-3.3,3.53-5.04,5.43.74.6,1.29,1.03,2,1.6-5.49,1.43-6.83,6.08-9.01,10.13,4.13,1.47,11.14-.61,13.51-3.83,2.09-2.84,1.69-4.45-1.41-6.34,1.1-.08,2.3.08,3.26-.31,2.1-.85,4.39-1.64,6.01-3.11,1.82-1.66,1.17-3.48-1.07-4.67Zm-5.95,4.7c-.14-.2-.57-.86-1.39-2.07,2.68.12,5.01-1.36,6.9.68-1.85.47-3.58.9-5.51,1.39Z"/>
    <path class="cls-2" d="m504.57,309.3c1.79.92,1.16,2.58.39,4.3-1.71,3.79-8.97,6.74-13.39,5.12,2.38-4.27,3.1-9.69,9.79-10.13-1.74-.96-3.24-1.66-4.58-2.58-1.63-1.12-1.66-2.44.41-2.88,2.39-.5,4.95-1,7.29-.6,1.17.2,2.51,2.3,2.79,3.74.16.79-1.71,1.99-2.69,3.04Z"/>
    <path class="cls-2" d="m572.78,199.03c.21-1.21.57-2.06.43-2.81-.14-.7-.79-1.31-1.57-2.49-.13,2.23-.21,3.65-.33,5.9-1.25-1.6-2.01-2.57-2.8-3.57-.65,1.28-1.26,2.47-1.87,3.67-.69-.56-1.37-1.12-2.05-1.67,0,0,0,0,0-.01-1.74-2.53-3.49-5.09-5.24-7.64-.46-.68-.91-1.35-1.38-2.02.25-.3.5-.61.75-.91,2.99,1.72,5.99,3.44,8.53,4.9,2.19-2.98,4.6-6.25,7.12-9.68,3.94,4.69,3.09,12.79-1.6,16.33Z"/>
    <path class="cls-2" d="m676.05,316.03c1.56-1.71,3.08-3.37,4.93-5.39-3.47-1.35-6.48-1.79-8.96-.15-1.47.96-2.03,3.29-3.01,5.01,1.4.45,2.81.9,4.22,1.37.15.05.28.18.41.28-1.21,2.5-1.17,3.58.16,5.06,2.51,2.76,10.35,3.49,13.73,1.08-3.25-3.43-5.4-8.33-11.48-7.25Zm-3.18-1.6c-.19-.22-.38-.43-.58-.65.49-2.65,3.13-1.91,4.78-2.73.17.25.34.5.51.75-1.57.87-3.14,1.75-4.71,2.63Z"/>
    <path class="cls-2" d="m586.23,436.98c-1.12,3.13-1.51,6.56-1.91,9.89-.24,2.07-1.02,3.3-3.03,3.8-3.06.77-6.1,1.57-8.77,2.26,4.03-7.98,8.08-16.01,12.25-24.27,1.74,2.89,2.54,5.24,1.45,8.31Z"/>
    <path class="cls-2" d="m674.39,299.39s0,.02,0,.03l-.06-.07s.02.01.02.02h0s.02.02.03.02Z"/>
    <path class="cls-2" d="m680.56,294.84c.44-.05.72-.05.99-.11,1.64-.34,3.27-.69,4.92-1.04-.84-1.4-1.47-2.99-2.55-4.17-2.74-2.99-4.8-4.12-7.38-3.53-.11.02-.22.05-.33.08-.11.03-.23.06-.34.1-.16.05-.33.11-.5.18-.25.1-.51.21-.77.33-.53.25-1.08.55-1.66.91-.15.09-.3.18-.45.28-.15.1-.3.2-.46.3-.01.01-.02.02-.03.02-.02-.29-.04-.59-.06-.88-.53.5-1.06.99-1.59,1.48.41-.1.88-.08,1.21-.3.15-.1.3-.2.45-.3.05.67.09,1.34.14,2.01h-.08l.08.09h0c1.35,1.48,2.71,2.95,4.05,4.39-.17.11-.74.44-1.58.94,1.84.74,3.33,1.34,4.88,1.96-1.91,3.12-3-.67-4.74-.16-.1.57-.21,1.27-.33,1.97.67.42,1.34.83,2,1.25,2.41,1.54,4.77,3.22,8.23,2.58-.59-1.62-1-3.06-1.64-4.37-.67-1.36-1.57-2.61-2.42-4Zm-8.34-4.63c.49-.51,1.09-1.37,1.39-1.28,2.22.7,5.01-.98,7.4,1.28h-8.79Z"/>
    <path class="cls-2" d="m475.75,347.61s-.02,0-.04-.01c-.05-.01-.08-.02-.13-.04-.11-.03-.23-.06-.35-.1-.3-.08-.62-.17-1.01-.29,2.72-2.09,5.07-4.09,5.1-7.55.02-2.06-.77-3.32-3.21-3.17-5.47.34-9.15,6.53-7.42,12.95.99-.21,1.97-.41,3.15-.65-2.41,4.12-2.47,7.37-.34,10.06,6.27-2.37,7.98-6.92,4.21-11.16.01-.01.03-.03.04-.04Zm-5.69.19c-.13-.2-.7-.87-.61-.98,1.97-2.33,1.53-6.91,6.76-6.26-1.98,2.33-3.96,4.66-6.15,7.24Zm5.54.36c-.07.76-.11,1.52-.21,2.27-.01.08-.02.17-.04.26-.02.18-.06.36-.1.54-.02.11-.05.23-.08.33t0,.01c-.02.09-.05.17-.07.26-.02.09-.05.17-.08.26-.72,1.98-1.84,3.82-3.28,5.48.11-.44.21-.88.3-1.33.09-.38.17-.77.26-1.16.11-.5.23-1,.36-1.5.11-.44.24-.87.37-1.3.07-.21.14-.42.22-.64.06-.16.12-.31.18-.46.1-.24.2-.48.32-.72.06-.12.12-.24.17-.36.12-.23.24-.45.38-.67.08-.13.16-.26.25-.39.02-.03.05-.07.07-.1.06-.09.12-.17.19-.26.02-.02.03-.05.05-.07.1-.13.21-.26.32-.39.07-.08.15-.17.23-.26.08-.08.16-.17.24-.25h0c-.02.14-.04.29-.06.45Z"/>
    <path class="cls-2" d="m476.2,246.55c.47-3.65.34-6.99-2.29-9.69-6.32,3.17-7.21,9.01-2.16,13.54,1.15-.83,2.29-1.65,3.66-2.62-.04.72-.21,1.3-.06,1.4,1.18.82-.72,3.3,1.84,3.33,2.31.03,4.45-.48,5.38-2.76.89-2.18,1.32-4.53,2.03-7.05-3.96-.52-5.79,2.27-8.4,3.84Zm-3.46,1.71c-.03.23-1.17.28-1.79.41.57-3.21,1.14-6.44,1.71-9.67.4.05.79.1,1.2.15-.35,3.04-.66,6.09-1.12,9.11Z"/>
    <path class="cls-2" d="m476.29,286.59c-2.03.77-4.18,1.21-6.66,1.91,1.9.8,3.35,1.41,4.8,2.03-.05.24-.08.48-.13.72-2.76.19-5.52.38-7.53.52-1.98,1.49-3.57,2.67-5.15,3.86-.21-.23-.42-.46-.63-.69,2.01-1.8,4.04-3.57,6.03-5.39.64-.59,1.65-1.27,1.67-1.94.16-3.89,2.5-6.58,4.85-9.23.08-.09.16-.18.24-.26.17-.17.33-.33.5-.47.08-.07.17-.14.26-.21.08-.07.17-.14.26-.19.17-.12.35-.24.53-.34.08-.05.17-.1.26-.14.09-.05.18-.08.28-.12.13-.05.26-.1.39-.15.01,0,.03-.01.05-.01.14-.05.26-.08.4-.11.26-.06.54-.1.81-.12.11,0,.23-.01.34-.01.12,0,.24,0,.36.01.15.01.3.03.46.05.11.02.23.04.34.06.11.02.23.05.34.08.12.03.24.06.35.1.12.03.24.08.36.12.12.05.25.1.38.15.12.06.25.11.37.17h-.02c-2.8-.23-3.42.48-4.66,5.76.61-.29,1.11-.7,1.48-1.21,1.09-1.49,2.13-3.03,3.18-4.55,1.4,4.71-.04,7.91-4.53,9.61Z"/>
    <path class="cls-2" d="m525.66,185.2c-.16-3.07-.32-6.01-.48-8.95-.3,0-.61-.02-.92-.02-.16,2.51-.33,5.01-.5,7.64-.68-.43-1.49-.94-2.52-1.6.61,2.41-.7,3.15-2.59,3.3-2.53.19-6.38-2.58-7.42-5.72h8.67c.81-2.76,1.71-5.86,2.75-9.41,6.35,4.37,6.96,8.27,3.02,14.75Z"/>
    <path class="cls-2" d="m487.88,211.24c-4.57-.13-8.21-4.54-8.38-10.3-.37-2.08.61-2.64,2.72-2.27,5.42.95,9.13,4.31,9.45,8.73.17,2.36-1.36,3.92-3.79,3.84Z"/>
    <path class="cls-2" d="m549.47,307.96c-8.09.16-11.42-4.4-11.36-12.29,3.97-.81,6.91.94,9.67,3.05,3.39,2.59,1.49,6.31,1.69,9.24Z"/>
    <path class="cls-2" d="m487.11,280.5s-.03.03-.04.05c-.02.02-.03.03-.05.05,0-.06.01-.12.02-.18h.01s.01.02.02.03c.01.01.02.02.03.03,0,0,.01.02.01.02Z"/>
    <path class="cls-2" d="m483.9,296.54c-.88.65-2,.98-2.99,1.44-3.34-5.15-1.83-11.3,3.22-14.27.11-.07.22-.14.33-.22.11-.07.21-.16.31-.25.08-.06.15-.13.22-.2.51-.49.96-1.09,1.41-1.68.2-.25.41-.51.62-.75h0,0c-.01.14-.02.25-.03.37-.02.23-.02.45,0,.66,0,.12,0,.23.02.34t0,.01c0,.12.02.24.04.36,0,.07.02.14.03.21.02.14.05.26.08.39.02.1.05.2.08.3,0,.04.02.08.03.11.02.08.04.17.08.25.03.1.06.19.1.28.02.06.05.12.07.18.18.47.42.94.69,1.43,2.35,4.1.3,7.61-4.31,11.02Z"/>
    <path class="cls-2" d="m657.6,313.88c.52-.68,1.01-1.32,1.6-2.1-.61.06-1.04.1-1.48.14-.33-6.13,4.44-9.41,12.02-8.27.9,7.31-4.84,12.21-12.15,10.24Z"/>
    <path class="cls-2" d="m601.37,192.67c-1.85,3.56-5.11,4.74-8.18,5.22-2.99.46-6.18-.39-9.29-.66-.14-.41-.29-.81-.43-1.21,2.19-2.05,4.06-4.91,6.66-5.97,3.75-1.53,7.36.94,11.24,2.62Z"/>
    <path class="cls-2" d="m601.53,276.64c-.31-.63-.5-1.01-.94-1.89.16,2.75-.69,3.04-2.6,2-4.76-2.62-6.01-7.95-3.12-13.87,7.34,1.96,10.3,7.86,6.66,13.76Z"/>
    <path class="cls-2" d="m524.14,263.42c-2.4.88-3.43-.19-4.16-2.16-1.6-4.33,1.65-7.78,6-10.02.89-.46,1.94-.6,3.07-.92,2.48,5.36.08,11.27-4.91,13.11Z"/>
    <path class="cls-2" d="m476.51,270.88c-.24.2-.69.43-.92.8-3.07,4.71-8.29,6.83-13.65,5.54-1.56-.38-2.14-1.12-1.03-2.54.86-1.1,1.65-2.29,2.64-3.27,4.7-4.63,6.76-4.23,11.5-1.35.45.28.92.52,1.46.82Z"/>
    <path class="cls-2" d="m667.17,265.03c-.34-7.06,5.06-11.54,11.93-9.88.56,7.94-4.96,12.51-11.93,9.88Z"/>
    <path class="cls-2" d="m674.39,299.42l-.06-.07c-.26.55-.41,1.44-.81,1.58-3.54,1.22-11.09-2.31-12.64-5.77-.92-2.04-.52-3.35,1.76-4.01,4.29-1.25,7.74.23,9.75,4.28.33.67.67,1.34,1,2,.33.65.65,1.29.97,1.94h0s.02.04.03.06Z"/>
    <path class="cls-2" d="m611.61,316.28c-4.42,1.64-11.5-.61-13.75-4.03-1.75-2.66-.89-4.75,2.15-5.5,3.08-.76,5.62.14,7.42,2.61,1.52,2.08,2.69,4.42,4.17,6.92Z"/>
    <path class="cls-2" d="m444.53,269.11c2.15-.48,4.3-.97,6.46-1.45-1.31,5.58-8.8,6.8-14.74,2.45,3.61-7.12,9.53-8.92,14.64-4.39-.48.17-.93.33-2.1.73,2.12.1,3.47.15,5.58.25-3.82.64-6.89,1.16-9.97,1.67.04.24.08.48.12.73Z"/>
    <path class="cls-2" d="m536.41,212.9c.56.52,1.12,1.04,1.73,1.61-2.12,3.54-9.44,5.82-13.38,3.78-.5-.26-.94-1.91-.65-2.25,1.7-1.96,3.44-3.98,5.54-5.48,2.86-2.06,6.62-.99,9.66,2.44-.99-.19-1.78-.34-2.57-.49-.11.13-.21.26-.32.39Z"/>
    <path class="cls-2" d="m540.74,287.72c1.35.96,2.02,1.45,2.7,1.93-1.93,4.38-9.35,6.96-14.23,4.7,1.91-3.74,3.56-7.67,8.09-8.98,2.32-.68,5.23.5,6.59,2.36h-3.16Z"/>
    <path class="cls-2" d="m449.56,299.94c-3.25,5.79-10.1,7.87-15.73,4.65,5.43-8.4,10.26-9.8,15.73-4.65Z"/>
    <path class="cls-2" d="m626.14,190.8c-.6-2.19-.7-4.69-3.42-5.96-1.21,1.96-2.53,3.78-3.54,5.76-2.09,4.06-1.39,6.97,1.94,10.03,1,.91,1.66,2.18,2.47,3.29.18-1.04.08-2.34.68-2.94,3.07-3.02,2.87-6.5,1.86-10.17Zm-4.08,5.99c-.51-1.44-.7-2.98-1.03-4.48.22-.01.44-.02.65-.03.27,1.46.54,2.92.8,4.38.15-.01.3-.02.46-.03.14-.46.27-.92.46-1.56.23,1.12.41,2.04.78,3.89-1.07-1.05-1.89-1.51-2.11-2.17Zm1.54,7.13c0,.06-.02.11-.03.17t.01-.01s0,0,0,0c0,0,.02-.01.02-.02h0s.03-.05.04-.05h0s-.04-.06-.06-.08Z"/>
    <path class="cls-2" d="m672.82,210.4c-4.77.21-9.44,4.37-10.33,9.2-.68,3.72.64,4.9,4.23,3.78,5.16-1.62,7.61-6.84,6.1-12.99Zm-2.44,4.93c-.05.69.19,1.4.29,2.01-1.2.32-2.6.69-4.14,1.1,1.23-1.78,2.42-3.51,3.62-5.24.27.07.54.13.81.2-.21.65-.54,1.28-.58,1.93Z"/>
    <path class="cls-2" d="m466.57,262.47c-.33-1.8-1.13-3.51-1.68-5.07-3.84-.37-7.85-.76-12.29-1.19.36,1.66.24,3.04.88,3.68,2.01,2.04,4.09,4.22,6.58,5.51.63.33,1.4.39,2.23.36.13,0,.26-.01.39-.03.86-.07,1.76-.22,2.62-.28.15-.01.3-.02.45-.02,0,.02,0,.05.01.07,0-.02.02-.05.02-.07h.05s-.03-.02-.04-.03h0c.02-.06.03-.12.06-.17,0-.02.01-.05.02-.07.04-.12.08-.23.13-.34,0-.02.01-.03.02-.05.04-.1.08-.2.12-.3.16-.4.32-.8.4-1.19.02-.08.03-.17.04-.25.01-.08.02-.16.02-.24,0-.1-.01-.2-.03-.3Zm-6.64-1.44c2.4-.73,5.29,1.98,5.8,4.31-1.79-1.32-3.58-2.67-5.8-4.31Z"/>
    <path class="cls-2" d="m451.29,242.69c-.15.43-.3.86-.45,1.28.78.58,1.49,1.11,2.32,1.72-5.08,1.29-11.99-5.2-11.09-10.15,9.19-.55,13.76,2.72,12.58,9.54-1.26-.9-2.31-1.65-3.35-2.39Z"/>
    <path class="cls-2" d="m683.73,257.39c-2.77.5-4.93,3.85-4.73,6.72.05.77.83,1.91,1.53,2.15,4.58,1.62,12.41-3.87,12.83-9.52-3.27.19-6.51.07-9.63.64Zm5.17,3.27c-.09.03-.19.05-.28.06-.05,0-.1.01-.15.02-.02,0-.05,0-.07,0h0s0,0-.01,0c0,0-.01,0-.01,0-.43.02-.91-.08-1.41-.21-.24-.06-.48-.12-.73-.18-.08-.02-.17-.05-.25-.06-.13-.03-.25-.06-.38-.08-.03-.01-.05-.02-.08-.02,0,0,0,0,0,0,.15-.05.76-.45,1.7-.78.05-.02.1-.04.16-.06.07-.03.14-.05.21-.07,1.16-.37,2.3-.79,3.6-1.25,1.19,2.84-1.31,2.29-2.29,2.62Z"/>
    <path class="cls-2" d="m694.97,302.19s-.02-.01-.03-.02c0,0-.02-.01-.02-.02h-.02s0,.04-.01.06h.1s0,0-.02-.01Zm-.1.02c-3.51.08-6.95.34-10.04,2.32-2.49,1.6-3.52,5.25-1.96,7.3,1.72,2.25,5.46,2.03,7.91-.43,1.44-1.44,2.4-3.09,3.06-4.88.06-.17.12-.34.18-.52.41-1.21.67-2.49.86-3.8,0,0-.01,0-.02,0Zm-5.5,5.83c.12-2.74.92-4.59,4.59-3.82-1.89,1.57-3.24,2.69-4.59,3.82Z"/>
    <path class="cls-2" d="m467.64,237.27c-.32-4.23-.62-8.18-.97-12.81-.76,4.59-.74,8.56-.56,12.61-5.35-3.42-4.88-9.05,1.1-15.04,5.72,4.11,6.04,11.68.43,15.25Z"/>
    <path class="cls-2" d="m660.48,237.07l-.02.1s-.02.1-.03.14c.01-.08.03-.16.05-.24Z"/>
    <path class="cls-2" d="m674.44,243.61c-3.92,2.55-12.72.05-14.32-4.18-.07-.2-.08-.43-.06-.67,0-.08.02-.16.04-.24.07-.39.22-.8.32-1.2-.46,2.4,1.57,1.95,2.96,2.16,1.35.21,2.72.34,4.09.45.44.03.89-.15,1.34-.23.02-.23.03-.46.05-.69-2.79-.65-5.59-1.3-8.38-1.94h0s-.03,0-.04-.01c.02-.01.03-.03.05-.04,0,0,0,0,0,0,.84-.65,1.69-1.31,2.53-1.97.02-.01.03-.03.05-.04-.02.02-.04.04-.05.05h-.01s-.01.02-.01.02c.64-.1,1.27-.14,1.89-.11.13,0,.26.01.39.03.14.01.26.02.4.05.23.03.46.07.69.12.1.02.19.04.28.07.11.03.23.06.33.1.16.05.32.1.48.16.29.11.57.23.86.37.05.03.1.05.15.08.12.07.25.14.38.21.1.06.2.12.3.19.32.2.63.42.93.67.14.11.28.23.41.36.15.12.29.26.42.4.05.04.09.08.13.13.12.12.24.25.36.38.16.18.33.37.48.57.09.11.17.21.25.33.09.12.18.25.27.38.17.26.35.52.51.8.17.28.33.57.48.87.08.15.15.29.22.45.05.1.1.2.14.3.06.12.12.25.17.38.06.13.11.26.16.39.12.29.23.58.34.88Z"/>
    <path class="cls-2" d="m681.35,225.41c-.39.63-.78,1.25-1.18,1.89-.33.52-.66,1.06-1.01,1.62-.12.19-.25.39-.37.59-.17.28-.34.55-.52.84-.43.7-.9,1.44-1.39,2.23-.08.13-.16.26-.25.4.29-.03.58-.07.87-.1-.3.07-.63.16-.98.27.03-.06.07-.11.1-.16-.15.01-.3.03-.45.05-.78.1-1.57.19-2.35.29-.78.1-1.56.2-2.34.29-.03-.46-.07-.92-.11-1.38.91-.05,1.81-.1,2.8-.16-.29-.34-.71-.85-1.66-1.96,1.48.34,2.32.53,3.35.77-.29-.63-.53-1.16-.56-1.22,1.98-1.61,3.75-3.06,5.53-4.5.17.08.36.17.53.26Z"/>
    <path class="cls-2" d="m692.56,232.33c-3.21,5.31-8.82,6.28-12.5,2.24,3.39-.46,6.82-.92,10.24-1.45.07,0,0-.82,0-1.3-3.2.23-6.33.39-9.44.69-1.12.11-2.24.23-3.35.36.15-.03.3-.07.45-.11.15-.03.28-.07.42-.1.47-.12.87-.25,1.16-.47.03-.03.07-.06.1-.09,4.48-4.1,8.56-4.08,12.92.23Z"/>
    <path class="cls-2" d="m505.53,254.91c-.91-4.35-2.73-6.11-7.22-6.44-2.31-.17-4.63-.03-7.16-.03.84,5.45,7.68,10.52,12.26,9.62,1.72-.34,2.53-1.24,2.12-3.15Zm-12.06-4.87c2.11,1.19,5.73-.63,6.4,3.32-1.68-1.98-5.56.14-6.4-3.32Z"/>
    <path class="cls-2" d="m481.52,234.43c-.38.14-.77.27-1.16.41.72,2.09,1.43,4.18,2.12,6.19-5-.38-8.98-7.49-6.52-12.17.28-.54,1.57-.98,2.25-.83,5.21,1.13,8.29,6.57,6.68,12.14-1.21-2.06-2.29-3.89-3.38-5.74Z"/>
    <path class="cls-2" d="m504.12,233.23s-.05-.05-.07-.07c-.15-.15-.33-.3-.47-.45h0c.04-.34.24-.84.1-.98-2.55-2.51-6.41-2.82-9.18-.46-2.1,1.79-3.9,3.95-5.88,5.99,3.71,2.58,11.56,1.84,14.14-1.11.65-.75,1.11-1.7,1.54-2.62.03-.06-.06-.17-.18-.3Zm-2.49,1.5c-2.11.14-4.24-.21-6.37-.37,0-.32-.01-.63-.02-.94,2.73-.23,5.45-.46,8.17-.69-.59.76-1.15,1.97-1.78,2.01Z"/>
    <path class="cls-2" d="m631.93,222.33c-.65-.67-1.76-.88-2.66-1.3-.34.88-.78,1.75-.99,2.67-.29,1.27-.39,2.58-.51,3.45,0,4.62,1.32,6.67,4.92,8.04,2.91,1.11,4.22.33,4.48-2.77.37-4.43-2.49-7.27-5.24-10.09Zm-2.54.91c.22-.11.43-.23.65-.34.22.31.44.62.66.93.24-.14.48-.29.73-.43.55,2.24,1.1,4.48,1.65,6.72-4.18-1.18-2.26-4.69-3.69-6.88Z"/>
    <path class="cls-2" d="m603.94,206.43c-.56,2.13-.98,4.33-1.72,6.42-1.01,2.85-3.11,4.31-6.22,4.33-3.21.02-3.86-.67-3.25-3.78.74-3.83,7.4-8.13,11.19-6.97Z"/>
    <path class="cls-2" d="m465.75,323.04c-.03.41-.38.79-.58,1.18-1.69-1.35-3.36-2.72-5.08-4.03-.76-.57-1.62-1.02-2.43-1.52-.16.2-.32.4-.48.6.67.68,1.23,1.5,2.02,2,1.84,1.17,3.79,2.18,5.69,3.26-1.93,2.41-4.4,1.41-6.27.39-2.87-1.57-4.57-4.37-5.06-7.67-.1-.68.43-1.92,1-2.16,4.57-1.98,11.54,3.01,11.2,7.94Z"/>
    <path class="cls-2" d="m513.06,203.49c-2.77-.66-5.12.13-6.79,2.29-1.58,2.05-2.8,4.37-4.32,6.79,4.2,1.5,10.93-.37,13.14-3.28,2.28-3.02,1.58-4.95-2.03-5.8Zm-8.98,7.93c1.66-1.53,3.1-2.86,4.54-4.19q-2.99,4.99-4.54,4.19Z"/>
    <path class="cls-2" d="m461.37,240.32c-.98,3.53-1.89,6.83-2.61,9.42-2.25-.06-4.76-.33-7.23-.12-.38.03-.69.1-.92.19-.04.02-.08.03-.11.05-.03.02-.07.03-.1.05-.06.04-.11.08-.16.12-.08.08-.15.16-.17.25-.01.03-.02.06-.02.09,0,.03-.01.07-.01.1,0,.05,0,.1.02.15.01.06.03.11.06.16.02.05.03.08.06.12.02.04.05.08.08.13.03.05.06.09.1.14.14.16.32.33.54.5.08.07.16.12.25.19h0c1.3-2.21,3.36-1.13,4.74-.55,1.45.6,2.49,2.2,3.69,3.39h0s.05.05.07.07l-.03-.08c.19-.83.38-1.67.58-2.56.32.16.76.41,1.21.64h0c.98.63,1.94,1.25,2.87,1.85,4.47-4.78,3.52-10.25-2.91-14.31Zm.06,12.45c2.16-.64,1.84-2.6,1.77-4.05-.07-1.34-1.12-2.59-1.41-3.95-.16-.76.35-1.65.55-2.48.25,0,.5,0,.76,0,.52,3.32,1.48,6.64,1.44,9.95-.03,2.72-2.04.19-3.11.52Z"/>
    <path class="cls-2" d="m537.68,235.91c-2.31.79-3.04-.38-3.5-2.16-.97-3.7,1.47-7.69,5.57-9.15.87-.32,1.79-.49,2.87-.78,1.97,5.63-.17,10.46-4.94,12.09Z"/>
    <path class="cls-2" d="m487.85,305.04c-.23-.14-.45-.28-.67-.43-.83-.54-1.66-1.08-2.49-1.61.76.19,1.52.37,2.28.56.76.18,1.52.37,2.28.55,1.51.37,3,.73,4.48,1.09-1.65-5.89-7-7.77-13.76-4.66,1,6.32,7.15,9.8,12.92,7.03-1.11-.47-2.12-.78-3-1.3-.69-.41-1.36-.82-2.03-1.25Zm-5.01-1.88l.03-.66c.49.14.98.27,1.47.41-.5.08-1,.17-1.5.25Z"/>
    <path class="cls-2" d="m486.33,263.09v-13.18c-.24,0-.47,0-.71,0v14.33h-.56v-12.5c-.19,0-.39-.02-.58-.02-.16,3.74-.33,7.47-.5,11.33-4.99-4.07-4.4-9.35,1.5-14.82,5.41,4.15,5.78,10.87.86,14.86Z"/>
    <path class="cls-2" d="m450.62,261.28c-7.24.38-10.52-3.47-9.37-11.44,7.68.59,9.91,5.32,9.37,11.44Z"/>
    <path class="cls-2" d="m579.05,272.84c-1.8-.53-4.56.11-6.08,1.27-1.76,1.35-.46,3.64.91,4.9,3.46,3.22,7.68,4.18,12.81,3.66-1.85-4.24-3.16-8.51-7.63-9.83Zm1.58,6.35c-2.58-1.05-5.16-2.1-7.91-3.22,1.92-1.84,6.3-.33,8.2,2.43-.1.26-.19.53-.29.79Z"/>
    <path class="cls-2" d="m630.87,197.74s-.04.03-.06.05c-.01-.05-.02-.08-.03-.13h0s0,0,.01.01c0,0,.01,0,.02.02s.01.02.02.02c.02.02.03.03.03.03Z"/>
    <path class="cls-2" d="m632.57,205.75c-.01-.19-.03-.37-.05-.56-.02-.19-.04-.38-.07-.56-.02-.15-.04-.3-.07-.46-.04-.25-.08-.51-.14-.76-.02-.11-.05-.21-.07-.32-.03-.17-.07-.35-.12-.52-.05-.22-.11-.43-.16-.65-.06-.22-.11-.43-.17-.65-.17-.64-.36-1.29-.52-1.93-.09-.3-.17-.61-.24-.91-.06-.21-.11-.42-.16-.63-2.38,2.07-4.76,4.15-7.15,6.23v-.02s-.02.02-.04.05c0,0,.01,0,.02,0,0,0,.01-.01.02-.02-.08.79-.17,1.6-.26,2.39-.1.9-.2,1.79-.3,2.68l-.06-.08s.04.06.06.1c.6.95,1.2,1.9,1.76,2.77.71-.65,1.44-1.32,2.16-1.98.56-1.4,1.13-2.79,1.69-4.19.35.72.69,1.42.81,1.66-.78,1.72-1.61,3.53-2.51,5.52,4.75-1.52,5.85-2.66,5.58-7.14Zm-2.55-1.58c-.03.11-.07.21-.11.3-.05.1-.1.19-.16.28-.06.09-.13.17-.2.25h0c-.06.06-.11.12-.17.17-.06.05-.11.09-.17.13-.08.06-.16.11-.25.16-.08.05-.17.1-.27.14-.07-.08-.14-.16-.21-.24-.06-.08-.12-.16-.17-.24-.01,0-.02-.01-.01-.02-.02-.03-.04-.06-.06-.08,0,0-.01-.01,0-.02-.03-.04-.05-.08-.07-.12-.13-.24-.21-.47-.25-.7-.05-.24-.05-.48-.03-.73.01-.08.02-.17.03-.26.02-.09.03-.17.06-.26.04-.16.09-.32.15-.48.03-.08.06-.16.09-.25.03-.08.06-.17.1-.25.06-.15.12-.29.18-.45.2-.46.39-.93.53-1.42.09.17.18.34.26.51.08.16.16.33.23.48.07.15.14.31.19.46.11.3.2.57.28.84.03.12.06.24.07.34.05.27.08.51.08.74,0,.25-.03.49-.09.7Z"/>
    <path class="cls-2" d="m481.35,313.31c-1.62,3.93-8.84,7.21-12.49,5.65-.46-.2-.95-1.58-.7-1.98,1.22-1.98,2.47-4.02,4.11-5.65,2.58-2.56,6.25-2.35,9.29.44-2.45.43-4.57.8-7.12,1.25,2.37,3.31,4.73.22,6.92.29Z"/>
    <path class="cls-2" d="m644.52,288.91c-1.27,3.57-4.89,2.68-8.22,3.96.52-2.99.33-6.07,1.65-8.25,1.3-2.16,4.11-3.42,6.37-5.15,1.95,3.69,1.21,6.59.2,9.44Z"/>
    <path class="cls-2" d="m624.52,251.89c-2.84,1.56-5.73,1.12-8.6.13-3.31-1.15-3.21-4.31-3.82-7.07,7.41-1.37,11.09.69,12.41,6.94Z"/>
    <path class="cls-2" d="m547.56,277.75c-.4-.18-.67-.41-.9-.38-6.39.85-7.78-5.21-7.25-9.78.23-1.97,1.3-2.17,2.95-1.55,4.81,1.79,6.52,5.47,5.19,11.71Z"/>
    <path class="cls-2" d="m528.6,309.36c-.55-4.41,6.14-5.61,4.31-10.89-2.25,3.31-4.28,6.31-6.4,9.42-2.18-5.87,1.35-10.5,8.65-11.7,2.9,5.26-.06,11.5-6.56,13.17Z"/>
    <path class="cls-2" d="m694.89,302.14s0,0,.01,0h-.01Z"/>
    <path class="cls-2" d="m704.64,302.75c-1.36.69-2.68.82-3.99.69-.15-.02-.3-.03-.45-.06-.17-.03-.36-.06-.53-.09-.37-.07-.74-.15-1.12-.24-.12-.03-.25-.06-.37-.1-.43-.11-.86-.23-1.29-.34-.16-.05-.31-.08-.46-.12s-.31-.08-.46-.11c-.15-.04-.3-.07-.45-.1-.21-.05-.41-.09-.62-.12.02.02.03.03.05.05-.02-.01-.05-.03-.07-.05,0,0,.01,0,.01,0-1.64-1.33-3.28-2.65-4.92-3.98.2-.32.39-.63.6-.94,3.22,1.22,6.44,2.45,10.02,3.82-1.14-2.3-1.74-4.46-4.67-4.48-2.14-.02-4.28-.38-6.69-.62,6.37-4.63,11.5-2.93,15.4,6.8Z"/>
    <path class="cls-2" d="m635.71,271.12c-2.65-2.73-7.22-1.94-8.34,1.02.03,0,.06,0,.1-.01,0,.01,0,.02,0,.03,0,.06-.01.12-.02.19-.01.13-.03.25-.05.38-.02.16-.04.31-.07.47-.02.14-.03.28-.05.42,0,.09-.01.17-.01.26,0,.25.03.49.12.7,1.53,3.83,9.82,6.62,14.05,4.4-1.91-2.68-3.5-5.59-5.73-7.87Zm-4.28,4.33c-.91.26-2.54-2.09-3.87-3.33,4.41-.49,7.64,1.44,8.6,5.16-1.69-.14-2.32-2.5-4.73-1.83Z"/>
    <path class="cls-2" d="m637.46,208.01c-2.1-.2-3.23-1.1-2.69-3.54.95-4.3,5.5-7.15,10.04-6.09.64,5.54-2.8,10.07-7.35,9.63Z"/>
    <path class="cls-2" d="m702.69,262.51c-.94,5.03-7.64,9.02-11.63,7.34,1.04-.86,2.06-1.72,3.09-2.58-.22-.3-.44-.6-.66-.9-1.14.73-2.28,1.47-3.49,2.25-.25-5.98,4.9-8.39,12.7-6.12Z"/>
    <path class="cls-2" d="m597.24,259.08c-.23.12-.45.24-.68.36.37.94.73,1.88,1.09,2.78-5.11-.43-7.05-4.07-5.72-11.16,6.06-.18,9.5,4.98,7.52,11.47-.81-1.26-1.51-2.35-2.22-3.45Z"/>
    <path class="cls-2" d="m566.71,189.3c-1.52-1.92-4.18-3.9-4.73-6.36-.55-2.46,1-5.41,1.62-8.13,7.01,4.1,6.8,9.13,3.11,14.49Z"/>
    <path class="cls-2" d="m618.58,239.28c-2.02,3.08-5.53,3.68-8.7,4.49-.95.24-3.17-1.26-3.45-2.32-.82-3.09,2.11-1.17,3.08-1.53,2.11-.78,4.61-.47,6.93-.73.45-.05.82-.7,1.22-1.08-.48-.26-.96-.77-1.43-.76-3.07.1-6.14.2-9.19.52-1.27.14-2.5.79-4.15,1.34,1.6-1.46,2.67-2.55,3.86-3.51,2.81-2.24,9.63-1.48,11.77,1.38.37.49.39,1.67.05,2.19Z"/>
    <path class="cls-2" d="m522.53,291.33c-.26,1.5-2.8,3.06-4.63,3.72-2.06.74-2.37-1.55-2.78-2.96-.99-3.38,1.42-7.33,6.35-9.46.47,3.16,1.52,6.06,1.06,8.7Z"/>
    <path class="cls-2" d="m491.09,327.29c-2.42-1.63-1.57.85-1.88,1.66-4.93-.38-6.3-3.47-6.83-8.18-.25-2.21,1.02-3.06,3.13-2.46,4.53,1.28,6.76,4.85,5.58,8.99Z"/>
    <path class="cls-2" d="m604.85,192.04c.44-1.88.86-3.64,1.32-5.63-1.49-1.8,2.12-5.17-1.05-7.89-.92,4.75-1.74,8.96-2.56,13.2-4.04-4.63-2.23-11.37,3.76-14.21,4.81,5.44,4.23,11.93-1.47,14.53Z"/>
    <path class="cls-2" d="m595.98,278.92c.02,1.8-.79,2.59-2.5,2.56-2.72-.05-5.04-.9-6.02-3.7-.7-1.99-1.17-4.06-1.74-6.09,4.23-1.11,10.22,3.42,10.25,7.23Z"/>
    <path class="cls-2" d="m683.65,227.41c.98-.78,1.94-1.55,2.98-2.38-1.97-2.41-2.76.5-4.06.68-.58-4.99,3.19-8.08,9.72-7.92,1.81,5.16-3.07,10.64-8.64,9.63Z"/>
    <path class="cls-2" d="m456.76,296.15c-1.12,1.14-3.73,1.27-5.59,1.06-1.26-.14-2.56-1.49-3.49-2.6-.83-.99-1.18-2.39-1.75-3.61,1.31-.59,2.63-1.17,3.98-1.76,1.98.64,3.95.87,5.41,1.87,1.66,1.12,2.98,3.48,1.44,5.04Z"/>
    <path class="cls-2" d="m661.31,261.98c.79-1.6,1.53-3.06,2.29-4.58-2.69.23-2.85.41-3.87,4.36-3.17-4.32.52-10.3,6.95-11.27,2.25,5.81.05,10.77-5.37,11.5Z"/>
    <path class="cls-2" d="m541.77,175.31c-.64-2.46-1.35-4.9-2.12-7.68-3.57,1.57-6.5,5.64-5.85,8.34.44,1.82,1.79,3.86,3.34,4.85,1.32.84,4-1.88,4.51-4.14.1-.45.23-.95.12-1.38Zm-4.09.1c-.17-2.29-.29-3.86-.43-5.77,2.11,1.7,2.81,3.19.43,5.77Z"/>
    <path class="cls-2" d="m470.82,310.76c-.69.14-2.25-1.03-2.4-1.78-.84-4.46-.7-9.95,5.55-11.83.73,1.96-2.7,3.03-1.12,5.11-1.19,2.22-2.4,4.44-3.59,6.66,3.45-.55,4.45-2.93,3.3-5.72.63.11,1.25.23,1.48.28.48-1.03.89-1.8,1.22-2.6.36-.86.65-1.75,1.02-2.75,2.74,4.77-.23,11.59-5.47,12.63Z"/>
    <path class="cls-2" d="m618.91,207c-.58.07-1.23.15-1.98.24.75,1.04,1.36,1.89,2.02,2.81-5.82.76-7.64-4.71-5.96-11.54,4.5.25,8.33,6.33,6.9,11.52-.4-1.25-.65-2.03-.98-3.03Z"/>
    <path class="cls-2" d="m646.63,253.82c-.98,2.18-4.3,3.16-5.99,2.06-1.31-.85-1.67-4.19-.41-5.9,1.68-2.28,3.73-4.17,6.79-4.54,1.55,2.91.81,5.73-.39,8.39Z"/>
    <path class="cls-2" d="m688.47,285.51q2.11-4.72.88-6.31c-.98,2.37-1.77,4.29-2.53,6.13-2.81-4.97.7-10.77,6.94-11.24,2.53,5.26.04,10.64-5.29,11.43Z"/>
    <path class="cls-2" d="m450.63,312.27c-.49-1.66-1.42-2.44-3.32-1.94-4.55,1.19-7.09,6.12-5.42,10.77,5.81.08,10.11-4.24,8.74-8.83Zm-8.03,6.26c2.09-1.52,1.97-4.5,4.94-4.02-1.56,1.16-1.31,4.39-4.94,4.02Z"/>
    <path class="cls-2" d="m532.39,235.39c-.36.59-.79,2.34-1.78,2.74-2.06.83-3.99-.18-5.34-1.98-.27-.36-.4-.84-.52-1.29-.62-2.23-1.57-4.55.16-6.62.34-.41,1.8-.26,2.49.11,2.48,1.35,4.73,3.01,5,7.04Z"/>
    <path class="cls-2" d="m497.1,201.76c-.26.15-.52.29-.79.43.65,1.68,1.3,3.36,1.96,5.07-6.4-.5-6.64-7.3-3.59-12.82,4.13,1.63,6.59,7.41,4.82,11.81-.84-1.58-1.62-3.04-2.4-4.5Z"/>
    <path class="cls-2" d="m544.43,259.81c-1.31,2.99-3.99,4.37-6.97,3.21-1.96-.76-3.72-2.12-5.42-3.4-.3-.22-.13-1.75.3-2.11,2.68-2.25,8.75-1.75,11.31.76-1.66.49-3.34.99-5.03,1.49.15.34.29.68.44,1.02,1.77-.32,3.54-.64,5.37-.97Z"/>
    <path class="cls-2" d="m622.16,324.79c-.97,2.56-4.4,5.06-7.81,5.53-1.45-3.33-.82-6.56,1-9.48.64-1.01,2.31-1.39,3.5-2.06.23.28.46.56.68.84-1.05,2.22-2.11,4.43-3.16,6.65.41.17.81.33,1.21.5,1.41-2.47,2.81-4.93,4.11-7.21.82.95,1.19,3.3.46,5.23Z"/>
    <path class="cls-2" d="m492.45,270.93c.55-3.68,1.07-7.12,1.59-10.58-2.02,2.82-3.59,5.63-2.56,9.27.46,1.62-.03,3.51-.09,5.28h0c.09-2.09-.25-3.83-1.93-5.51-2.34-2.34-1.35-6.74,1.81-9.71.67-.63,1.48-1.11,2.19-1.65,4.11,4,3.73,9.64-1,12.89Z"/>
    <path class="cls-2" d="m607.41,194.78c-.54-.45-1.85-.75-2.27-.42-3.8,2.9-2.66,10.39,1.3,12.09.29-.99.6-2.04,1.01-3.47.52,1.22.9,2.1,1.24,2.89.06.12.11.25.16.37.06.12.11.25.16.37,2.37-5.03,1.89-8.93-1.6-11.83Zm-.64.81c.21,1.8.42,3.52.61,5.24-2.52-2.12-2.59-4.19-.61-5.24Zm2.23,11.03h0s-.03.08-.05.11c0,0,.06-.07.06-.07,0,0,0,0,0,0,0-.01-.01-.02-.02-.03Z"/>
    <path class="cls-2" d="m630.78,197.65s0,0,.01.01c0,0-.01,0-.01,0h0Z"/>
    <path class="cls-2" d="m630.87,197.72h0v.02s-.02-.02-.03-.03c-.01,0-.02-.01-.02-.02.02.01.04.03.06.04Z"/>
    <path class="cls-2" d="m634.4,195.27l-.02-.02s-.01-.03-.02-.05h0s0,0,0,0,0,.02.01.02c0,.01.02.03.02.04Z"/>
    <path class="cls-2" d="m635.1,199.99c.41-3.82.81-7.49,1.21-11.15-.39-.04-.78-.08-1.17-.11-.28,2.27-.55,4.53-.78,6.48-.01-.02-.02-.04-.03-.06-.03-.06-.07-.12-.11-.21-.05-.08-.1-.17-.15-.28-.39,1.72-.73,3.18-1.09,4.76-.4-.32-.78-.63-1.14-.91-.16-.13-.33-.26-.49-.39-.16-.13-.32-.26-.47-.39-.11-.68-.16-1.33-.16-1.96,0-.17,0-.35.02-.52,0-.21.02-.42.05-.63,0-.1.02-.19.03-.28,0-.03,0-.05.01-.08.02-.16.05-.32.08-.47.04-.19.08-.38.13-.56,0-.03.02-.07.03-.1.05-.19.11-.38.17-.57.07-.2.14-.39.23-.59h0c.08-.2.17-.39.26-.57.09-.19.19-.37.3-.55.11-.19.22-.37.34-.54.11-.17.23-.34.36-.5.03-.03.05-.06.07-.1.11-.14.21-.26.32-.39.15-.18.31-.36.47-.53.16-.16.32-.32.48-.48.25-.24.51-.46.78-.69.14-.11.28-.23.42-.33.14-.11.28-.22.43-.33,4.3,3.86,4.09,9.69-.57,13.04Z"/>
    <path class="cls-2" d="m679.31,278.98c-1.22,4.46-6.11,7.94-9.41,7.34-1.85-.33-2.56-1.2-1.95-3.13.79-2.5,2.31-4.05,4.97-4.19,2.01-.11,4.02-.02,6.4-.02Z"/>
    <path class="cls-2" d="m609.05,250.17c-4.05,2.29-10.03.88-11.75-2.34-.85-1.58-.37-2.47,1.06-3.12,2.53-1.14,4.93-1.11,6.94,1.05,1.26,1.36,2.41,2.82,3.75,4.41Z"/>
    <path class="cls-2" d="m550.07,238.17c0-.19-.02-.38-.05-.58,0-.1-.02-.19-.03-.28-.01-.1-.03-.21-.05-.32-.02-.1-.03-.21-.05-.3-.03-.16-.06-.33-.1-.5-.01-.07-.03-.13-.05-.19-.03-.15-.07-.29-.11-.44-.05-.16-.09-.31-.14-.46-.06-.17-.12-.34-.18-.51-.25-.69-.57-1.34-.94-1.92-.07-.11-.14-.21-.2-.3-.07-.1-.14-.2-.21-.29-.07-.1-.15-.2-.23-.3-.14-.16-.27-.31-.42-.45-.06-.06-.12-.11-.17-.17-.06-.06-.12-.11-.19-.17-.06-.05-.12-.1-.18-.14-.06-.05-.12-.1-.19-.14-.19-.14-.39-.26-.59-.36-.43-.21-1.79.31-1.85.65-.46,2.53-1.12,5.14-.9,7.66,0,.09.02.18.03.27.03.23.09.45.17.65.02.07.05.14.08.21,0,.03.02.06.03.08.03.07.06.13.09.19.03.06.06.11.08.16.07.13.15.25.24.37.08.11.17.22.26.32,0,0,.02.02.03.03.03.04.07.08.11.12.18.19.38.36.59.51.07.05.14.1.21.15.1.06.2.12.3.18.02.01.04.02.06.03.09.05.18.1.28.14.12.06.25.11.38.16.1.03.2.07.3.1.07.02.13.04.2.06,0,0,0,0,.01,0,.1.03.19.05.29.07.1.02.19.03.29.05.1.01.19.02.28.03.1,0,.19.01.29.01.14,0,.26,0,.39-.01.23-.02.45-.05.67-.11.11-.03.21-.06.32-.1,0,.01,0,.03.01.04.01-.02.02-.03.03-.05.02,0,.03-.01.05-.02-.01-.01-.02-.02-.03-.03.15-.25.26-.52.37-.81.04-.1.08-.21.11-.32.02-.06.04-.12.05-.19.03-.12.06-.24.09-.36.06-.28.1-.56.14-.85.05-.51.06-1.03.03-1.57Zm-4.58.17c.46-.98.8-1.71,1.38-2.95.85,2.53,1.58,4.64,2.29,6.74-1.25-1.29-2.5-2.58-3.67-3.79Z"/>
    <path class="cls-2" d="m565.43,208.56c-1.49.45-2.56.95-3.67,1.05-3.29.3-5.94-2.54-7.51-8.04,4.32-1.08,9.07,1.1,10.73,4.93-.53.2-1.05.41-1.98.77.87.46,1.39.73,2.44,1.29Z"/>
    <path class="cls-2" d="m631.69,285.24c0-.06,0-.13-.01-.2,0-.06-.01-.13-.02-.2-.02-.28-.06-.56-.11-.85-.04-.22-.08-.45-.14-.67-.17-.69-.41-1.37-.72-2.02-.1-.2-.19-.39-.3-.58-.06-.1-.11-.2-.17-.3-.12-.2-.25-.4-.38-.59-.07-.1-.14-.2-.21-.29-.07-.1-.14-.19-.21-.28-.11-.14-.23-.27-.34-.4-.35-.39-.73-.76-1.15-1.08-.07-.06-.15-.11-.22-.17-.35-.25-.72-.47-1.11-.67-.16-.08-.32-.15-.48-.22-.6,2.76-1.57,5.4-1.65,8.08v.2c0,.08,0,.16.01.24,0,.1.01.19.03.29.06.47.19.92.38,1.34.07.15.14.29.22.43.07.12.14.23.21.34.1.15.21.3.34.44.09.11.19.21.28.3.04.05.1.09.14.14.08.08.16.15.25.22.12.1.24.19.37.28.12.08.25.16.38.23,0,0,.01.01.02.01.12.06.24.12.37.18.39.18.8.3,1.22.36.07.01.15.02.23.03.21.02.42.02.63,0,.1,0,.19-.02.28-.03.06,0,.12-.02.18-.03.12-.02.25-.06.38-.1v.05s.03-.04.05-.06c.01,0,.02,0,.03-.01,0,0-.01-.01-.01-.02.03-.03.06-.07.09-.11.07-.08.14-.17.2-.27.12-.17.22-.36.31-.54.03-.05.06-.11.08-.16.05-.1.09-.2.13-.3.02-.06.05-.11.06-.16.03-.08.06-.17.08-.26.05-.15.09-.31.13-.47.08-.36.14-.73.16-1.11.01-.09.01-.17.02-.26,0-.13,0-.26,0-.39,0-.12,0-.23-.01-.35Zm-3.41,1.84c-.65-1.17-1-2.5-1.49-3.82,1.79-.73,3.38,1.75,3.57,6.28-.72-.81-1.57-1.54-2.08-2.46Z"/>
    <path class="cls-2" d="m582.07,235.82c-.65,1.15-3.47,1.83-5.08,1.52-3.31-.64-4.51-3.8-6.25-6.71,3.33-1.36,6.09-.41,8.75.65,1.98.79,3.6,2.75,2.58,4.54Z"/>
    <path class="cls-2" d="m474.27,223.31c-1.78-2.19-4.09-3.88-4.69-6.05-.78-2.82.15-5.88,2.67-8.02,0,2.73,0,5.46,0,8.6,2.1-1.63,1.95-4.04,0-8.61,4.93,3.33,5.55,6.8,2.02,14.09Z"/>
    <path class="cls-2" d="m506.85,242.97s-.02.02-.03.03c-.02.01-.03.03-.05.04h-.02s.04-.03.05-.06c0,0,0,0,0,0,0,0,0,0,.01,0,.01,0,.02,0,.03,0Z"/>
    <path class="cls-2" d="m508.81,237.36c-.39,1.53-.75,3.08-1.2,4.6-.12.38-.5.69-.78,1.02,0,0-.01,0-.01,0,0,0,0,0,0,0-.25.09-.5.19-.74.3-.12.05-.25.11-.37.17-.96.45-1.91.98-2.94,1.34-.1.03-.2.07-.3.1-.08.03-.17.05-.26.07-.02.01-.03.01-.06.02-.1.03-.2.05-.31.07-.08.02-.17.04-.27.05-.01,0-.03.01-.04,0-.11.02-.21.03-.32.05-.1.02-.2.02-.3.03-.28.02-.56.02-.86,0-.16-.01-.32-.03-.48-.06-.16-.03-.33-.06-.5-.1s-.34-.09-.51-.14c.98-2.22,1.8-4.35,2.88-6.36.4-.75,1.37-1.64,2.11-1.67,1.75-.09,3.52.3,5.28.5Z"/>
    <path class="cls-2" d="m536.89,274.09c-1.86.54-3.84,1.76-5.54,1.45-3.31-.61-4.47-3.82-6.34-6.81,3.89-1.08,7.03-.52,9.72,1.24,1.13.74,1.46,2.71,2.16,4.11Z"/>
    <path class="cls-2" d="m549.68,171.58c-1.19,1.89-3.66,2.96-5.95,4.68-1.08-7.98.35-10.76,5.64-12.11,1.56,2.41,1.66,5.27.31,7.43Z"/>
    <path class="cls-2" d="m649.2,216.32c-.29-1.32-.59-2.64-.9-4.04,1.36-.51,2-4.09.58-7.17-1.07,4.08-2.37,7.59-1.16,11.43-4.85-2.47-4.16-9.09,1.49-12.96,4.42,4.41,4.36,9.79-.01,12.74Z"/>
    <path class="cls-2" d="m612.12,265.69c-4.99,1.4-8.39,4.73-8,8.08.16,1.35,1.19,3.57,2.02,3.66,1.33.15,3.42-.77,4.13-1.9,1.81-2.85,2.61-6.16,1.84-9.85Zm-4.15,9.13c-1.31-2.97-.57-4.79,2.24-6.01-.68,1.83-1.36,3.66-2.24,6.01Z"/>
    <path class="cls-2" d="m619.32,240.6c1.27.32,2.54.63,3.82.94l-.2.73c-1.09.22-2.19.45-3.55.72,4.77,3.42,10.04,1.86,12.53-3.51-4.72-3.86-9.86-3.35-12.59,1.13Zm10.26.06c-1.87.28-3.74.5-5.62.66-.2.02-.45-.43-.99-1.01,2.35-.37,4.3-.71,6.26-.97.26-.03.73.27.81.51.07.21-.25.77-.46.81Z"/>
    <path class="cls-2" d="m661.51,298.26c-2.13,1.07-3.9,2.07-5.76,2.86-.82.34-2.1.65-2.68.25-1.5-1.02-2.74-2.44-4.08-3.7,1.45-.94,2.81-2.42,4.38-2.71,2.92-.52,6.07.96,8.14,3.3Z"/>
    <path class="cls-2" d="m512.27,199.04c1.43,1.02,2.62,1.88,3.91,2.81-3.8,1.69-9.04-1.17-9.51-5.08-.08-.64.44-1.7,1-2.01,3.81-2.14,9.49,1.46,9.66,6.06-1.53-.69-2.28-3.34-5.06-1.78Z"/>
    <path class="cls-2" d="m514.72,241.18c-3.22-1.62-5.45.43-7.9,1.83.01-.01.02-.03.02-.04,0,0-.02.02-.03.03-.02.01-.03.03-.05.04.02-.01.04-.02.06-.03-.86,1.44-1.72,2.89-2.59,4.33,3.16,1.83,9.37.97,11.57-1.49,1.89-2.12,1.5-3.38-1.09-4.67Zm0,3.55c-1.76-.74-3.91,2.41-5.82-1.05h5.92l-.1,1.05Z"/>
    <path class="cls-2" d="m606.23,253.99c-3.22,1.5-4.39,4.48-4.9,7.62-.08.48-.08.96-.02,1.41.02.1.03.2.06.3.02.08.03.16.06.24.06.24.14.46.23.68.04.1.08.19.14.28.02.06.05.11.08.16.03.06.06.1.09.15.06.1.12.2.19.29.06.08.12.16.19.24.06.07.12.15.19.21.1.1.2.2.3.29.07.06.15.12.23.18.06.05.13.1.19.14.05.03.1.07.16.1.07.04.14.08.21.11.08.04.16.07.24.11.08.03.16.06.25.08.1.03.19.06.29.07.11.02.22.04.33.05.11.01.22.01.33,0,.05,0,.08,0,.13,0,.03,0,.06-.01.08-.01.06,0,.13-.02.19-.03,0,.02,0,.05-.01.07,5-2.25,5.39-8.12.77-12.73Zm-.76,12.63c-2.19-.59-1.58-2.34-1.44-3.79.17-1.87.48-3.73.88-5.57.15-.68.69-1.27,1.05-1.9.27.11.55.22.82.33-.44,3.64-.88,7.28-1.32,10.93Z"/>
    <path class="cls-2" d="m583.99,198.1c-1.64-.23-3.69-1.17-4.57-.51-2.11,1.57-3.68,3.87-5.47,5.88-.05.69-.1,1.39-.15,2.09,2.1,1.3,4.31,2.58,6.59.65,2.41-2.04,3.92-4.63,3.58-8.1Zm-5.86,6.25c-.51-2.11,1.12-3.85,4.53-5.33.19.2.38.4.58.6-1.65,1.53-3.31,3.06-5.11,4.73Z"/>
    <path class="cls-2" d="m502.39,260.14c-1.15,2.99-1.02,6.16.48,8.49,1.23,1.89,3.26,2.94,5.28,2.07.94-.41,1.52-2.5,1.59-3.86.15-2.94-3.17-5.82-7.35-6.7Zm4.97,10.36c-1.1-1.98-2.18-3.94-3.5-6.31,3.91,1.89,5.09,4.26,3.5,6.31Z"/>
    <path class="cls-2" d="m582.52,194.24c-1.13-1.74,2.69-3.51-.23-5.6-.64,1.86-1.19,3.47-1.74,5.08-.21.06-.42.12-.62.19-.21-1.66-1-3.52-.51-4.95.96-2.86,2.82-5.26,6.1-5.92,2.94,4.56,1.47,9.77-3,11.19Z"/>
    <path class="cls-2" d="m584.17,214.15c-1.23-3.21-3.8-4.84-8.72-4.78-.36.38-1.84,1.23-1.85,2.11-.06,3.82,5.78,7.21,9.29,5.66,1.44-.64,1.85-1.47,1.27-2.99Zm-10-2.47c2.75-.96,5.88,1.04,5.7,3.27-1.8-1.04-3.52-2.02-5.7-3.27Z"/>
    <path class="cls-2" d="m568.84,249.68c-.63-2.38-1.56-4.69-2.41-7.02-.11-.29-.21-.59-.32-.88,0,0,0,0,0,0-2.8,1.56-4.12,4.17-4.8,7.13-.52,2.24,1.47,5.88,3.07,5.9,2,.03,4.98-3.16,4.46-5.14Zm-3.9,3.02c-.43-.07-.86-.15-1.29-.22.52-2.89,1.05-5.77,1.58-8.65.36.06.7.12,1.06.19-.85,2.83.32,5.99-1.35,8.69Zm1.14-11.03h-.01s.03.07.05.11c.02-.01.03-.02.05-.03l-.08-.08Z"/>
    <path class="cls-2" d="m546.41,205.66c.16-.66.34-1.36.52-2.06,3.34-1.61,2.94-5.33,5.13-8.05-2.58.45-5.55,5.3-5.52,8.1-.54.24-1.08.47-1.62.71-2.12-4.54.79-9.01,7.02-10.54,2.72,5.96-.36,12.25-5.52,11.85Z"/>
    <path class="cls-2" d="m488.9,215.14c-.23.25-.45.5-.68.74.46,2.89,4.33,2.4,5.5,4.59-3.66,1.63-9.15-1.56-9.46-5.55-.03-.49.54-1.48.79-1.47,2.45.12,5.04-.02,7.29.77,2.07.73,2.87,2.94,2.79,5.38-2.18-1.56-4.21-3.02-6.25-4.47Z"/>
    <path class="cls-2" d="m581.9,169.22c-3.52.02-6.21,1.72-8.13,4.5-1.46,2.11-.95,4.22.88,5.41-.01-.03-.03-.06-.05-.08.11.05.23.1.34.15.1.04.19.08.29.13.57.26,1.14.54,1.68.5,4.07-.3,6.66-5.78,4.98-10.59Zm-2.59,5.5c-.86,1.2-1.85,2.33-2.9,3.37-.46.45-1.2.61-1.83.9-.14-.23-.33-.5-.26-.59,2.07-2.87,4.17-5.7,6.27-8.55.41.28.82.56,1.23.83-.83,1.35-1.58,2.76-2.51,4.04Z"/>
    <path class="cls-2" d="m683.05,254.18c.39-3.92.77-7.63,1.14-11.34-.43-.04-.85-.08-1.28-.12-.68,3.65-1.36,7.31-2.05,10.98-3.53-3.96-2.12-9.84,2.93-12.36,4.2,4.6,4.03,9.69-.74,12.84Z"/>
    <path class="cls-2" d="m663.1,234.99s-.01.01-.02.02c-.02.02-.04.04-.05.05h-.01s0,0,.01-.01c.01-.02.03-.04.04-.06h.03Z"/>
    <path class="cls-2" d="m667.29,228.66c-1.29,2.18-2.79,4.23-4.22,6.33h-4.55c1.56-1.83,2.65-3.1,3.75-4.38-.25-.22-.5-.43-.74-.65-1.44.92-2.87,1.85-4.37,2.82.34-4.33,5.64-7.73,9.4-6.04.47.21.97,1.54.74,1.93Z"/>
    <path class="cls-2" d="m511.45,226.95c-.32-3.05-.66-6.28-1-9.5-.38.02-.76.04-1.14.06v8.61c-4.08-2.68-4.02-8.16-.05-11.64,5.1,3.08,5.87,7.86,2.18,12.47Z"/>
    <path class="cls-2" d="m596.55,202.21c-.6,1.72-.86,3.59-1.84,4.95-1.09,1.53-3.26,2.8-4.77,1.15-.95-1.02-.88-3.43-.52-5.05.26-1.18,1.64-2.23,2.74-3.05.81-.6,2.22-1.25,2.93-.92.73.33.95,1.81,1.46,2.92Z"/>
    <path class="cls-2" d="m558.74,180.93c0-2.27.11-3.95-.03-5.6-.14-1.68-.51-3.34-.78-5.07-1.95,1.28-1.84,4.67-.43,5.52v3.34c-4.39-1.55-4.79-6.42-.91-11.37,5.12,2.36,6.07,7.25,2.15,13.18Z"/>
    <path class="cls-2" d="m497.93,291.88c-1.93-1.45-4.17-2.34-6.45-.64-1.85,1.38-3.58,2.91-5.75,4.68,4.77,2.72,10.73,1.65,12.45-1.5.35-.65.24-2.19-.24-2.54Zm-1.29,2.21c-1.74-.1-3.65,2.14-5.75-.77h5.77c0,.26-.01.52-.02.77Z"/>
    <path class="cls-2" d="m532.83,283.74c-.08,4.34-3.27,7.5-6.34,7.09-1.68-.23-2.47-.94-2.14-2.8.51-2.82,3.94-5.77,6.83-5.45.71.08,1.34.94,1.65,1.17Z"/>
    <path class="cls-2" d="m451.3,276.02c3.35-1.76,6.43-3.38,9.91-5.21-1.12,4.68-6.85,7.35-11.37,5.9.99-6.57,5.61-9.69,11.59-7.09-2.47.78-4.53,1.23-6.4,2.06-1.86.83-3.03,2.4-3.73,4.33Z"/>
    <path class="cls-2" d="m542.05,179.28c-.77.92-1.49,2.4-1.28,3.43.15.74,1.83,1.4,2.93,1.66,3.15.77,6.12-1.63,8.05-6.26-2.05-1.56-7.91-.98-9.7,1.17Zm4.14,2.52c-1.42.3-2.9.33-4.36.46-.21-.22-.43-.44-.65-.67.43-.19.86-.43,1.31-.55,1.02-.29,2.04-.6,3.08-.76.61-.09,1.26.09,1.88.15-.42.47-.77,1.26-1.26,1.36Z"/>
    <path class="cls-2" d="m512.84,317.64c-2.23-1.29-3.76.23-5.01,1.7-1.73,2.03-1.56,6.21.52,9.59,1.91-1.89,3.87-3.5,5.41-5.46,1.27-1.63.59-4.95-.92-5.83Zm-4.01,9.51c-.83-2.65.78-5.89,3.08-6.41-1.18,2.46-2.13,4.43-3.08,6.41Z"/>
    <path class="cls-2" d="m618.37,187.28c-.72,2.92-3,4.9-5.35,4.92-2.73.02-3.56-.95-2.73-3.55.32-.99.98-2.26,1.8-2.61,1.89-.8,3.99-1.11,5.99-1.62.11.96.5,1.98.29,2.86Z"/>
    <path class="cls-2" d="m467.28,280.47c.02,3.56-4.71,6.65-9.59,6.08,1.67-7.35,4.17-9.46,9.75-7.69-1.82.86-3.23,1.52-4.89,2.31,2.1,2.3,3.21-.82,4.74-.69Z"/>
    <path class="cls-2" d="m489.16,224.42c-1.66-.59-3.42-.93-5.9-1.58-.54.64-1.83,1.92-1.7,2.1,1.52,1.96,3.06,3.99,4.99,5.51,1.46,1.14,4.95.05,5.51-1.26.71-1.69-.57-3.94-2.89-4.76Zm-5.15,1.57c.07-.28.15-.55.23-.82,2.09.79,4.17,1.59,6.65,2.53-3.16,1.8-4.86-.52-6.88-1.71Z"/>
    <path class="cls-2" d="m443.31,291.85c-2.27-2.96-6.35-2.96-10.95.1,1.76,2.88,6.5,5.03,9.26,4.34,2.63-.67,3.29-2.37,1.7-4.44Zm-3.15,1.96c-2.25-.34-4.31-.65-6.38-.96.04-.27.07-.54.11-.81h6.47c-.08.73-.14,1.3-.19,1.78Z"/>
    <path class="cls-2" d="m525.08,208.05c1.03-.49,2.06-.99,3.19-1.53-4.67-2.67-9.54-1-11.25,3.69,4.85,3.95,10.37,3.02,11.39-1.21-1.13-.32-2.24-.64-3.34-.95Zm-.22.49s0,.08-.02.12c0,.05-.02.1-.03.15,0,0,0,.02,0,.02-.02.06-.03.11-.06.15-.02.06-.05.11-.08.15-.06.09-.13.17-.21.24-.05.05-.11.08-.16.11-.07.04-.15.08-.23.11-.02,0-.03.01-.05.02-.15.05-.3.08-.47.11-.08.01-.16.02-.25.03-.23.03-.47.04-.69.07-.07.01-.14.02-.2.03h-.01c-.06.01-.13.02-.19.04-1.26.32-2.62.26-3.93.36-.05-.36-.11-.71-.16-1.07,2.25-.36,4.5-.71,6.76-1.07.01.15,0,.3-.01.42Z"/>
    <path class="cls-2" d="m652.11,215.94c-1.35,2.15-1.09,3.46,1.29,3.89,1.65.3,3.83.11,5.13-.79,1.8-1.24,2.99-3.36,4.52-5.2-3.86-1.77-9.28-.58-10.95,2.09Zm1.01,1.13c2.24-.78,4.32-1.51,6.4-2.23-2.63,3.37-4.39,3.86-6.4,2.23Z"/>
    <path class="cls-2" d="m613.49,222.66l-.1-.06c-.5.12-1.1.48-1.46.32-4.05-1.91-6.12-10.12-3.44-13.75.14-.19.41-.26.73-.32.32-.06.66-.08.95-.16h0c.55,1.14,1.09,2.29,1.64,3.43-.47.57-.93,1.16-1.05,1.3.4,2.93.76,5.5,1.11,8.07.13-.03.26-.05.39-.07.13-.42.26-.83.36-1.12.26.72.55,1.49.83,2.27l.03.1Z"/>
    <path class="cls-2" d="m462.84,302.48c-2.41,4.84-7.21,4.86-11.92.26,1.78-3.34,8.08-4.19,10.93-1.49-1.76,1.31-4.81-.51-6.43,3.02,2.85-.69,5.06-1.22,7.42-1.79Z"/>
    <path class="cls-2" d="m450.27,284.7c.38.19.76.39,1.13.58,0,0,0,0,0,0-.13.1-.26.19-.39.27-.1.07-.21.13-.31.19-.01,0-.02.01-.03.01-.1.06-.21.11-.32.16-.1.05-.21.1-.32.14-.11.05-.21.08-.32.12-.12.05-.23.08-.35.11-.12.03-.24.06-.36.08-.15.03-.29.05-.45.06-.03,0-.07,0-.11,0-.72.06-1.44-.06-2.14-.31-.17-.06-.33-.14-.5-.21-.25-.12-.5-.26-.74-.42-.12-.08-.24-.16-.36-.25-.12-.08-.24-.18-.35-.28-.14-.12-.27-.24-.4-.37-.14-.14-.28-.29-.42-.45-.11-.12-.21-.24-.3-.37-.21-.26-.4-.54-.59-.83-.08-.13-.16-.26-.23-.39-.14-.25-.27-.5-.39-.77-.06-.12-.11-.24-.16-.37-.06-.12-.11-.25-.15-.38-.03-.08-.06-.16-.09-.24-.07-.19-.14-.39-.2-.59,4.68-3.16,10.57-1,11.13,3.61-3.02-1.19-6.25-2.47-9.48-3.75-.17.41-.34.82-.51,1.23,1.43.56,2.88,1.06,4.28,1.7.29.13.57.26.86.41.23.11.46.22.68.33.63.32,1.25.64,1.88.96Z"/>
    <path class="cls-2" d="m505.53,275.51c-.61-4.06-6.88-6.79-10.26-4.48-.38.26-.65,1.17-.52,1.65.02.08.05.17.08.25.02.07.05.14.07.2.09.21.2.41.33.61.06.1.12.19.19.28.06.08.13.17.2.25.14.17.29.33.46.5.15.14.3.28.46.42s.33.26.51.39c.1.07.19.14.29.2.09.06.17.12.26.17.1.06.19.12.29.17.19.11.39.22.6.32.12.06.25.12.38.19.13.06.26.11.39.17.13.05.26.11.4.16.39.15.8.28,1.2.37.13.03.26.06.4.09.14.03.29.06.43.08.11.02.21.03.32.05.12.02.24.03.35.03.11.01.23.02.34.02.22,0,.44,0,.65-.01.14-.01.29-.02.42-.04.13-.02.26-.04.39-.07.12-.03.24-.06.36-.09.01,0,.02,0,.02,0,.01.02.02.04.02.06.01-.02.03-.05.04-.07.01,0,.02,0,.03-.01,0,0-.02-.01-.02-.01,0-.01.02-.02.02-.03.04-.07.08-.15.13-.22.02-.02.03-.05.05-.08.03-.03.05-.07.07-.11.12-.19.25-.37.36-.55.02-.04.05-.07.06-.11.04-.07.07-.14.1-.2.02-.07.05-.13.06-.2.01-.03.02-.05.02-.07.01-.05.02-.1.02-.15,0-.03,0-.07,0-.1Zm-8.09-2.44c4.06-.2,5.97,1.06,7.09,4.2-2.36-1.4-4.73-2.8-7.09-4.2Z"/>
    <path class="cls-2" d="m663.57,284.91c-6.54-1.12-9.9-7.19-6.85-13.24.79,1.91,1.2,3.37,1.97,4.58.07.12.15.23.24.34.48.65,1.1,1.21,1.71,1.78.11.11.23.21.34.32.15.14.3.29.45.43h0c.41,1.38.82,2.75,1.24,4.13.25.48.51.95.89,1.66Z"/>
    <path class="cls-2" d="m543.65,279.87c0-.06-.01-.12-.01-.17,0-.02,0-.03,0-.04.03,0,.05.01.07.02-2.14-3.48-9.12-2.94-11.62,1.17,1.7.92,3.35,1.94,5.11,2.72,2.59,1.14,4.79.27,6.43-1.85.3-.39.1-1.17.03-1.84Zm-8.14.94c.5-.86,6.13-1.66,8.08-1.17-1.89,1.83-5,2.28-8.08,1.17Z"/>
    <path class="cls-2" d="m506.59,228.48c-1.21.67-3.31.82-4.5.19-2.11-1.11-4.24-2.67-4.58-6.27,2.66.42,5.05.53,7.25,1.23,1.8.56,3.02,4.18,1.83,4.85Z"/>
    <path class="cls-2" d="m565.67,200.81c-6.18-.65-9.43-5.48-8-11.75.66.52,1.17.93,1.69,1.34,1.75,2.55,3.5,5.11,5.24,7.64,0,0,0,0,0,.01.16.42.33.85.51,1.31.08.23.17.46.27.7.1.24.19.49.29.76Z"/>
    <path class="cls-2" d="m548.95,192.43c1.5-2.02,2.91-3.9,4.31-5.78-.27-.26-.54-.53-.81-.79-1.57,1.66-3.15,3.32-4.8,5.06-.98-4.43,2.25-7.68,7.4-7.67,1.16,5.23-.88,8.41-6.1,9.18Z"/>
    <path class="cls-2" d="m701.81,288.4c-3.57,4.87-9.37,5.09-12.19.05,3.69.67,7.23,3.05,10.7-.13-3.35-.2-6.52-.38-10.15-.6,3.12-2.97,8.87-2.37,11.63.68Z"/>
    <path class="cls-2" d="m566.16,241.75l-.08-.08h-.01s.05.02.08.03h0s.01.03.02.05Z"/>
    <path class="cls-2" d="m569.78,242.69c-.17-2.23-.32-4.27-.47-6.31-.34-.03-.67-.06-1-.09-.15,2.05-.29,4.1-.45,6.27-.5-.25-.94-.47-1.36-.68-.12-.06-.23-.12-.34-.17-.08-.22-.15-.43-.21-.65-.03-.1-.06-.2-.09-.29-.07-.24-.13-.47-.17-.7-.02-.07-.03-.15-.04-.23-.03-.13-.05-.25-.07-.38-.02-.11-.03-.22-.05-.33-.01-.1-.02-.2-.03-.3-.01-.09-.02-.18-.02-.26-.02-.39,0-.78.03-1.15.02-.17.05-.34.08-.51.03-.19.08-.37.13-.54.02-.07.04-.13.06-.2.03-.11.07-.21.11-.32.04-.1.08-.21.13-.31.05-.11.09-.21.14-.31.05-.11.11-.21.16-.31.06-.11.13-.23.2-.34.05-.09.11-.17.17-.26.19-.28.4-.56.64-.84.08-.1.16-.19.25-.29.26-.29.55-.59.87-.88,3.93,2.4,4.64,7.05,1.33,10.4Z"/>
    <path class="cls-2" d="m524.32,284.38c.29-2.24.55-4.36.82-6.49-.28-.1-.56-.21-.83-.31-.43,1.94-.86,3.88-1.34,6.05-3.34-2.87-2.49-6.88,1.88-10.07,3.73,3.26,3.49,8.08-.53,10.81Z"/>
    <path class="cls-2" d="m601.83,218.16c-.23,5.52-3.09,8.18-8.21,7.61,2.25-1.85,4.48-3.68,6.71-5.51-.25-.34-.5-.68-.74-1.03-2.16,1.6-4.32,3.2-6.52,4.82-.67-4.26,3.73-7.15,8.76-5.9Z"/>
    <path class="cls-2" d="m607.91,298.55c-2.72.03-6.68,3.37-7.57,6.92,2.06,0,3.81,0,5.56,0,2.18-.01,3.73-.99,4.62-2.99,1.09-2.49.12-3.95-2.6-3.92Zm-1.59,6.4c-1.35-2.86-.28-4.01,3.26-5.12.27.28.55.56.82.84-1.27,1.33-2.54,2.67-4.08,4.28Z"/>
    <path class="cls-2" d="m652.52,311.56c.06-.85.12-1.67.19-2.49-.15-.05-.3-.09-.45-.14-.43.88-.85,1.78-1.34,2.79-2.37-4.3-.26-7.77,5.36-9.23,1.17,3.4-.57,7.65-3.77,9.06Z"/>
    <path class="cls-2" d="m571.07,243.45c-1.38,1.62-1.26,4.53,0,5.3,1.6.98,4.75.14,5.55-1.81.84-2.06,1.17-4.32,1.78-6.67-3.71-.56-5.64,1.19-7.33,3.18Zm1.13,5.02c-.38-.25-.76-.51-1.14-.77,1.63-2.16,3.27-4.32,4.91-6.48.3.21.61.42.91.64-1.56,2.2-3.12,4.41-4.68,6.61Z"/>
    <path class="cls-2" d="m609.09,206.78s-.09-.04-.14-.06c0,0,.06-.07.06-.07.02.05.05.08.07.13Z"/>
    <path class="cls-2" d="m613.49,222.66l-.1-.06s.04-.02.06-.04c.01,0,.02-.01.03-.02,0,.04,0,.08,0,.12Z"/>
    <path class="cls-2" d="m616.3,217.13c0,.11-.01.23-.02.34,0,.11-.02.22-.03.33-.06.52-.17,1.03-.34,1.51-.04.12-.08.24-.13.36-.03.09-.07.18-.11.27-.05.11-.1.23-.16.33-.07.15-.16.3-.24.45-.02.02-.03.05-.05.07-.08.14-.18.28-.28.41-.08.11-.16.21-.25.31-.08.1-.16.19-.25.27-.07.08-.15.16-.24.23-.12.12-.25.22-.38.32-.05.04-.1.07-.15.11-.06.04-.11.08-.17.11-.14-2.91-.28-5.83-.46-9.43-.61.98-.79,1.27-1.04,1.67-.07-1.01-.12-1.84-.17-2.67-.55-1.14-1.09-2.29-1.64-3.43-.32-.55-.63-1.1-.95-1.66-.04-.07-.08-.15-.12-.23.14.06.27.11.4.17.08.04.17.08.25.12.11.05.21.1.31.15.1.05.2.11.3.16.1.05.2.11.3.17.1.06.19.11.29.17.19.12.38.24.56.37.31.21.6.44.88.68.38.32.74.67,1.07,1.04.13.14.25.29.37.45.14.17.27.34.4.52.25.36.48.74.7,1.14.08.14.15.28.21.42.01.02.02.03.02.05.05.09.09.18.14.28.07.16.15.33.21.5.09.22.17.44.25.67.08.23.15.46.22.69.24.85.34,1.73.3,2.59Z"/>
    <path class="cls-2" d="m664.64,282.38c-.02.97-.42,2.62-1.96.86-.42-1.38-.83-2.75-1.24-4.12h0c-.81-2.57-1.62-5.15-2.51-7.98,2.45.79,4.73,1.78,5.26,4.58.41,2.18.49,4.44.45,6.66Z"/>
    <path class="cls-2" d="m498.19,324.23c-1.67,2.14.42,3.73.38,5.83-3.42-1.5-5.22-5.8-3.9-9.17,5.79,1.41,7.6,4.58,5.18,9.63-.6-2.27-1.13-4.28-1.66-6.29Z"/>
    <path class="cls-2" d="m595.81,174.42h0c-.32-.06-.63-.12-.94-.18-.64-.12-1.26-.22-1.88-.28-.1-.01-.2-.02-.29-.03-2.32-.19-4.54.19-6.54,2.21-1.09,1.1-2.59,1.79-3.91,2.67-.54-2.84,1.56-6.35,4.58-6.72,2.62-.32,5.34.14,7.99.48.04,0,.07.02.11.04.03.02.06.04.08.07.03.03.06.07.09.11.02.03.05.06.07.1.03.05.06.1.08.16.03.07.06.14.1.21.16.37.3.82.47,1.17Z"/>
    <path class="cls-2" d="m595.95,174.45l-.05.05-.03.05s-.04-.08-.06-.12c.04.01.08.02.12.03h.01Z"/>
    <path class="cls-2" d="m523.48,227.95c-.24,2.23-.63,4.59-3.34,5.59,1.34-4.71-.94-8.56-1.34-13.29-.48,1-.66,1.37-1.12,2.32.14-1.44.21-2.28.3-3.21,3.21,1.45,5.83,5.48,5.5,8.6Z"/>
    <path class="cls-2" d="m606.94,224.72c-.13,1.09-2.01,1.98-3.11,2.96-.71-1.17-2-2.33-2.01-3.51-.03-2.24.94-4.31,4.06-5.54.44,2.16,1.29,4.19,1.06,6.09Z"/>
    <path class="cls-2" d="m653.16,279.38c-1.18.63-2.2,1.08-3.13,1.67-1.97,1.25-3.55,2.77-3.21,5.43.32,2.55,2,3.3,4.13,1.81,2.02-1.41,3.3-6.05,2.22-8.91Zm-3.85,8.74c-.86-3.4-.19-4.86,2.68-6.06-.87,1.98-1.69,3.81-2.68,6.06Z"/>
    <path class="cls-2" d="m454.71,308.73c2.83,4.48,6.25,5.78,10.28,4.06-.57-5.21-4.9-6.99-10.28-4.06Zm1.3.61c3.7-1.04,5.95.56,8.38,3.58-3.12-1.34-5.6-2.4-8.38-3.58Z"/>
    <path class="cls-2" d="m489.4,309.76c-2.65-.01-5.23,3.42-5.41,7.52,2.59-.85,5.06-1.33,7.14-2.5,1.03-.58,1.35-2.42,2-3.69-1.25-.47-2.49-1.33-3.73-1.34Zm-4.09,5.97c1.08-3.48,3.81-4.19,7.13-3.84-2.34,1.27-4.69,2.53-7.13,3.84Z"/>
    <path class="cls-2" d="m497.25,240.32c-.82-.81-3.89-.57-4.9.34-1.65,1.48-2.45,3.91-3.79,6.27,3.37.84,5.38-.6,7.33-1.93,1.68-1.16,2.86-3.2,1.36-4.68Zm-3.35,3.53c-.98.73-1.93,1.49-3.03,2.34.57-3.62,3.06-4.7,6.38-4.75-1.12.8-2.24,1.59-3.35,2.41Z"/>
    <path class="cls-2" d="m596.89,173.19c-1.52,5.19-8.67,8.67-13.88,6.75,3.29-1.54,6.23-2.93,9.13-4.28-.16-.09-.83-.46-1.49-.81,1.7-1,3.7,2.11,5.3-.39l-.05.05s.02-.03.03-.05h0c.22-.29.46-.62.95-1.26Z"/>
    <path class="cls-2" d="m519.01,233.12c-5.24-2.18-6.14-8.22-1.98-12.91-.78,2.6,1.66,5.11.74,7.31.47,2.09.83,3.74,1.24,5.6Z"/>
    <path class="cls-2" d="m698.8,244.64c-3.29-3.81-7.37-5.94-13.15-5.51,5.41-4.15,9.76-2.14,13.15,5.51Z"/>
    <path class="cls-2" d="m652.36,277.25c-8.56-.5-11.62-3.33-10.63-10.17,1.79,2.97,3.29,5.46,4.39,7.27,2.44,1.13,4.34,2.02,6.25,2.9Z"/>
    <path class="cls-2" d="m650.57,336.37c-6.26-3.44-7.57-7.81-3.71-12.83.16,2.31-.02,4.71.57,6.9.52,1.94,1.89,3.66,3.13,5.93Z"/>
    <path class="cls-2" d="m539.03,201.15c.24-.92.44-1.69.67-2.55h3.21c-.91-.56-1.29-.81-1.97-1.23,3.16-2.6,1.83-6.36,2.51-9.66,2.87,7.43,1.6,11.31-4.42,13.44Z"/>
    <path class="cls-2" d="m478.51,263.16c-2.26-2.14-4.37-4.15-5.86-5.56-1.66-1.08-2.68-1.74-3.86-2.5.93-.52,1.69-.95,2.11-1.18,2.93,2.64,8.44,3.39,7.61,9.24Z"/>
    <path class="cls-2" d="m481.02,341.15v12.41c-3.71-3.35-3.81-8.92,0-12.41Z"/>
    <path class="cls-2" d="m614.76,313.16c.32,1.68.59,3.07.83,4.35-2.77-1.99-4.47-7.39-2.96-10.06.41-.73,1.22-1.23,1.89-1.79.04-.03.59.34.58.49-.08,1.03-.17,2.06-.44,3.04-.08.29-.74.42-1.6.87,1.09.18,1.72.28,2.34.39.16.29.32.59.48.89-.78.35-1.57.7-2.36,1.06.14.19.27.39.4.58.37.07.73.15.83.17Z"/>
    <path class="cls-2" d="m617.95,317.06v-12.44c3.61,4.18,3.74,8.26,0,12.44Z"/>
    <path class="cls-2" d="m678.08,331.94c-.38-.58-.73-1.17-1.13-1.73-.58-.83-1.08-1.76-1.82-2.42-.69-.61-1.65-.9-2.47-1.36-.91-.51-1.8-1.05-3.31-1.96,6.11-.69,9.02,1.72,8.73,7.47Z"/>
    <path class="cls-2" d="m679.68,223.24c-2.26,1.31-4.09,2.37-5.92,3.43-.02-.12-.05-.25-.07-.38-1.51,1.29-3.02,2.58-4.64,3.96.08-4.74,4.83-7.95,10.64-7.02Z"/>
    <path class="cls-2" d="m516.02,263.11c-.85-4.13-1.64-7.93-2.58-12.45,4.65,4.3,5.28,7.63,2.58,12.45Z"/>
    <path class="cls-2" d="m578.54,220.66c-3.57,1.47-7.02,2.89-10.62,4.37,1.72-4.94,4.85-6.24,10.62-4.37Z"/>
    <path class="cls-2" d="m512.98,262.78c-.19.16-.38.32-.58.48-3.72-2.69-4.4-6.71-1.27-10.98v3.73c.39.92,1.02,2.42,1.72,4.08-.78.18-1.36.32-1.81.42.64.74,1.29,1.5,1.94,2.27Z"/>
    <path class="cls-2" d="m474.47,292.92c-1.81,3.79-6.1,5.13-11.6,4.26,1.34-.72,2.78-1.49,4.25-2.27.01.04.15.43.37,1.08.52-.76.95-1.38,1.63-2.36.36.96.59,1.58.63,1.7,1.35-.68,2.76-1.4,4.72-2.4Z"/>
    <path class="cls-2" d="m681,271.37c-3.11-.14-6.22-.26-9.97-.43,4.35-3.95,7.84-3.13,9.97.43Z"/>
    <path class="cls-2" d="m618.91,261.72c-1.92-3.24-3.75-6.32-5.51-9.27,4.68,1.46,6.78,4.84,5.51,9.27Z"/>
    <path class="cls-2" d="m511.22,189.35c-2.24-2.91-4.24-5.51-6.44-8.36,4.82.9,6.87,3.61,6.44,8.36Z"/>
    <path class="cls-2" d="m627.55,272.12s-.06,0-.09,0c-.03,0-.06,0-.1.01l.1-.1s.06.05.08.08Z"/>
    <path class="cls-2" d="m573.35,171.57v-10.25c3.1,3.66,2.99,7.1,0,10.25Z"/>
    <path class="cls-2" d="m640.23,210.67c-4.11.52-7.82,1.83-10.39,5.3,1.29-5.4,3.6-6.56,10.39-5.3Z"/>
    <path class="cls-2" d="m574.65,179.12l-.13-.11s.04-.02.06-.02c0,.02.02.03.03.05.02.03.03.06.05.08Z"/>
    <path class="cls-2" d="m591.93,188.39c1.62-2.83,3.35-5.82,4.77-8.3,1.14,4.45-.98,8.36-4.77,8.3Z"/>
    <path class="cls-2" d="m569.37,166.82c.37,1.25.74,2.47,1.12,3.69-.23.17-.45.34-.67.51-.57-.74-1.52-1.42-1.66-2.24-.5-2.98.24-5.69,2.84-8.49-.38,2.55-.65,4.33-.96,6.41-.03,0-.55.1-.66.12Z"/>
    <path class="cls-2" d="m508.31,190.41c-1.21-.21-2.37-.06-2.83-.56-1.98-2.16-3.35-4.63-2.87-7.86,1.83,2.71,3.57,5.29,5.7,8.42Z"/>
    <path class="cls-2" d="m478.59,327.92c-3.12-3.05-5.95-5.82-10.34-4.57,4.56-2.68,9.15-.85,10.34,4.57Z"/>
    <path class="cls-2" d="m460.89,235.58c-1.73-2.78-3.34-5.37-5.37-8.62,4.95,2.31,5.95,4.03,5.37,8.62Z"/>
    <path class="cls-2" d="m591.05,262.51c-2.83.36-6.4.82-9.69,1.24,2.01-3.52,5.06-3.85,9.69-1.24Z"/>
    <path class="cls-2" d="m475.75,347.61s-.03.03-.04.04c-.02.02-.04.04-.06.06,0-.04,0-.08.01-.12,0,0,.02,0,.05,0,.02,0,.04,0,.04.01Z"/>
    <path class="cls-2" d="m658.83,200.63c-1.36,2.6-2.85,5.47-4.42,8.47-1.08-4.13.5-6.91,4.42-8.47Z"/>
    <path class="cls-2" d="m505.04,220.9c-1.64-2.29-3.38-4.71-4.93-6.88,3.68-.03,5.83,2.76,4.93,6.88Z"/>
    <path class="cls-2" d="m457.86,236.35c-3.11-.33-4.81-3.49-4.28-8.14,1.48,2.82,2.84,5.41,4.28,8.14Z"/>
    <path class="cls-2" d="m539.76,194.82c-.59-.08-1.17-.17-1.84-.26.17.66.34,1.36.57,2.25-2.71-1.59-2.35-3.53,1.68-7.01-.13,1.59-.26,3.17-.41,5.02Z"/>
    <path class="cls-2" d="m451.21,251.92s-.06.02-.1.02c.01-.02.02-.05.04-.06h.01s.03.02.05.04Z"/>
    <path class="cls-2" d="m459.5,254.73c-.12.05-.24.09-.36.13-.29.1-.58.19-.86.24-.28.07-.56.12-.82.14-.11.01-.21.02-.3.03-.14,0-.28.01-.42,0-.17,0-.35-.02-.52-.03-.39-.04-.77-.13-1.14-.27-.12-.05-.25-.1-.38-.15-.61-.27-1.22-.67-1.84-1.21-.17-.15-.34-.3-.52-.47-.37-.36-.74-.77-1.13-1.23,3.34-.81,5.48,2.01,8.3,2.82Z"/>
    <path class="cls-2" d="m459.66,254.78c-.05-.01-.1-.03-.15-.05.03,0,.05-.02.08-.03h0s.02,0,.03-.01l.03.08Z"/>
    <path class="cls-2" d="m683.95,277.72c-2.26-.23-4.55-.29-6.74-.81-.56-.13-.77-1.7-1.14-2.62.37-.1.74-.21,1.12-.32.34.61.69,1.22,1.04,1.83.06-.19.12-.37.18-.55,1.84.63,3.69,1.26,5.54,1.88,0,.19,0,.39.01.58Z"/>
    <path class="cls-2" d="m640.92,366.53c-.07-.13-.14-.26-.21-.39h.01s.02-.03.02-.03h.02s.03.08.05.13c0,0,0,.02.01.02.03.09.07.18.1.27Z"/>
    <path class="cls-2" d="m647.33,383.59c-2.14-5.68-4.28-11.37-6.41-17.06.77,1.48,1.6,2.93,2.39,4.4.86,1.6,1.67,3.22,2.31,4.91.94,2.45.99,5.23,1.71,7.75Z"/>
    <path class="cls-2" d="m690.25,244.18s-.01.04-.02.06h0v-.02s0,0,0,0c0-.01-.03-.04-.03-.06.01,0,.02,0,.03.01.01,0,.02,0,.03.01h0Z"/>
    <path class="cls-2" d="m697.14,246.4c-.09.25-.19.49-.28.74-2.2-.99-4.4-1.97-6.61-2.96.02-.07.05-.15.07-.23.05-.15.1-.3.16-.47.03-.08.06-.17.09-.26.13-.39.29-.86.49-1.47.73,1.29,1.12,1.98,1.61,2.85.25-.42.45-.77.56-.98,1.3.92,2.59,1.85,3.89,2.78Z"/>
    <path class="cls-2" d="m510.86,231.66c.74.95,1.24,1.58,1.73,2.2-.98-.62-1.97-1.24-2.95-1.86.08-.28.16-.57.24-.85,1.09.22,2.4.13,3.24.72,2.66,1.85,5.14,3.96,7.69,5.96-3.17-1.97-6.34-3.93-9.94-6.17Z"/>
    <path class="cls-2" d="m656.99,210.03c1.23-3.03,2.26-5.55,3.48-8.54.78,4.67-.03,6.82-3.48,8.54Z"/>
    <path class="cls-2" d="m594.46,180.26c-1.47,2.23-2.94,4.46-4.52,6.87-.7-2.87.21-4.46,3.92-7.28.2.14.4.27.6.41Z"/>
    <path class="cls-2" d="m639.93,213.41c-2.17,2.43-4.4,4.7-8.88,3.91,1.91-.67,3.08-1.08,4.31-1.52-.04-.21-.13-.71-.14-.73,1.71-.6,3.21-1.13,4.7-1.65Z"/>
    <path class="cls-2" d="m582.89,223.56c-2.56,1.48-4.44,2.8-6.5,3.63-.62.25-1.78-.82-2.65-1.27,3.26-.84,5.8-1.49,9.16-2.36Z"/>
    <path class="cls-2" d="m652.96,274.61c-1.34-.69-2.36-1.13-3.28-1.72-.86-.56-1.61-1.3-2.58-2.1q2.62-1.9,5.86,3.82Z"/>
    <path class="cls-2" d="m590.91,265.99c-2.76.47-5.52.94-8.29,1.4-.07-.45-.14-.88-.21-1.33,2.77-.39,5.55-.78,8.32-1.18.06.37.12.74.17,1.11Z"/>
    <path class="cls-2" d="m623.03,209.02s.04.06.06.1c-.01.05-.02.09-.03.14-.01-.08-.02-.16-.03-.24Z"/>
    <path class="cls-2" d="m624.94,214.4h0c-.1-.06-.22-.12-.34-.17.12.06.24.11.34.17Z"/>
    <path class="cls-2" d="m524.98,208.1l-.1.02s0-.08,0-.13l.11.11Z"/>
    <path class="cls-2" d="m613.95,258.72c-2.58.99-3.39-.24-2.9-5.44,1.09,2.04,2,3.74,2.9,5.44Z"/>
    <path class="cls-2" d="m640.78,365.98s-.01.03-.01.05h0s0,.01,0,.01c0,.02,0,.04-.01.06h-.02s-.02.03-.02.03c.02-.05.04-.1.06-.14Z"/>
    <path class="cls-2" d="m643.14,357.56v7.5s-.08.02-.12.02c-.06-.9-.12-1.79-.18-2.69-.16-.05-.33-.1-.48-.15-.27.64-.54,1.29-.81,1.93-.25.6-.51,1.19-.76,1.8.67-2.8,1.34-5.6,2.01-8.39.12-.01.23-.02.35-.02Z"/>
    <path class="cls-2" d="m681.05,271.37s0,.03,0,.05c-.02-.02-.03-.03-.05-.05h.06Z"/>
    <path class="cls-2" d="m685.14,275.06c-.15.18-.3.36-.45.53-1.3-.82-2.64-1.57-3.84-2.52-.06-.05-.08-.14-.08-.26,0-.07.01-.15.02-.24,0-.02,0-.04.01-.06.01-.06.02-.13.04-.2.02-.09.04-.18.06-.28s.05-.19.06-.28c.02-.06.03-.12.04-.18.01-.06.02-.12.03-.17,1.36,1.22,2.73,2.44,4.09,3.65Z"/>
    <path class="cls-2" d="m690.22,244.21s-.03-.04-.03-.06h0c-2.11.42-3.2-.52-3.87-3.84.08.12.16.23.24.33.08.1.17.19.26.28.05.05.09.09.14.14.05.05.1.08.15.12.1.08.19.16.29.23.1.07.2.14.3.2.05.03.1.07.15.1.2.13.41.24.61.36.05.03.1.06.15.09.1.06.19.12.29.18.1.06.19.12.27.19.01.01.02.02.03.03.08.06.15.12.22.18.02.02.04.03.06.06.04.04.08.07.11.11.03.03.05.06.07.08.04.05.08.09.11.14.03.04.06.08.09.13.05.08.1.16.14.25.02.05.05.11.07.16.01.02.02.05.03.08.02.05.04.11.05.16.02.08.04.16.06.25,0,.01,0,.03,0,.05Z"/>
    <path class="cls-2" d="m690.23,244.22h0s0,0,0,0h0Z"/>
    <path class="cls-2" d="m675.11,276.78c-1.33-1.11-2.36-1.96-3.38-2.82.19-.23.39-.45.59-.68.91,1.05,3.94-.34,2.79,3.49Z"/>
    <path class="cls-2" d="m608.26,378.15c-.67-3.26-1.4-6.76-2.01-9.73,1.64,1.79,2.28,4.55,2.01,9.73Z"/>
    <path class="cls-2" d="m484.51,302.89c-.55.09-1.11.19-1.66.28.01-.22.02-.44.03-.66.54.15,1.07.3,1.61.45,0,0,.02-.07.02-.07Z"/>
    <path class="cls-2" d="m672.13,290.31h0s-.08-.1-.08-.1h.18s-.06.07-.1.1Z"/>
    <path class="cls-2" d="m465.83,265.41s-.07.07-.07.07c0-.02,0-.05-.01-.07,0-.03-.01-.06-.02-.08.02.02.04.03.06.05h0s.03.02.04.03Z"/>
    <path class="cls-2" d="m685.52,260.21s0,0,.01,0c0,0,0,0,0,0h0Z"/>
    <path class="cls-2" d="m686.97,260.54c.5.12.98.23,1.41.21-.43.02-.91-.08-1.41-.21Z"/>
    <path class="cls-2" d="m660.5,237s0,.02,0,.02c0,.02-.01.03-.01.05-.01,0-.03,0-.04-.01,0,0,.05-.06.06-.06Z"/>
    <path class="cls-2" d="m660.49,237.07s-.01.07-.02.1c-.01.05-.02.1-.03.14.01-.08.03-.16.05-.24h0Z"/>
    <path class="cls-2" d="m503.58,232.71h0c-.06.01-.11.02-.17.02.03-.04.06-.07.08-.11l.08.08Z"/>
    <path class="cls-2" d="m451.16,251.86s.03.03.05.05c-.03,0-.06.02-.1.02.01-.02.02-.05.04-.06,0,0,0-.01,0-.01h0Z"/>
    <path class="cls-2" d="m459.66,254.78c-.05-.01-.1-.03-.15-.05.03,0,.05-.02.08-.03h0s.05.05.07.07Z"/>
    <path class="cls-2" d="m628.66,205.6s.03.05.06.07l-.07-.06s0,0,.01,0Z"/>
    <path class="cls-2" d="m629.68,201.54c.11.3.21.57.28.84-.07-.26-.16-.54-.28-.84Z"/>
    <path class="cls-2" d="m630.11,203.46c0-.23-.03-.47-.08-.74.06.26.08.51.08.74Z"/>
    <path class="cls-2" d="m549.31,242.3l-.08.07s-.01-.03-.01-.04c-.02-.06-.05-.13-.07-.19.05.05.08.09.13.14.01.01.02.02.03.03Z"/>
    <path class="cls-2" d="m630.37,289.72v-.05s0-.09,0-.13c.03.03.05.06.08.08,0,0,0,.01.01.02l-.08.07Z"/>
    <path class="cls-2" d="m605.54,266.64l-.08.08s0-.05.01-.07v-.03s.05.01.07.02Z"/>
    <path class="cls-2" d="m613.49,222.66l-.03-.1s.02-.01.03-.02c0,.04,0,.08,0,.12Z"/>
    <path class="cls-2" d="m504.66,277.35l-.07.08s-.01-.04-.02-.06c-.01-.04-.02-.07-.04-.11.04.02.07.05.11.07,0,0,.02,0,.02.01Z"/>
    <path class="cls-2" d="m543.63,279.66h0s-.03-.01-.05-.02c.02-.02.03-.03.05-.05l.07.08s-.05-.01-.07-.02Z"/>
  </g>
  <g>
    <path class="cls-1" d="m161.7,671.71v-142.36h49.13c9.32,0,17.28.89,23.87,2.66,6.6,1.77,12.01,4.3,16.24,7.58,4.23,3.28,7.34,7.25,9.3,11.91,1.97,4.66,2.95,9.91,2.95,15.75,0,3.35-.49,6.55-1.48,9.6-.98,3.05-2.51,5.91-4.58,8.57-2.07,2.66-4.69,5.07-7.87,7.24-3.18,2.17-6.98,4-11.37,5.51,19.56,4.4,29.34,14.96,29.34,31.7,0,6.04-1.15,11.62-3.45,16.74-2.3,5.12-5.64,9.53-10.04,13.24-4.4,3.71-9.81,6.61-16.25,8.71-6.43,2.1-13.78,3.15-22.05,3.15h-53.76Zm26.48-80.73h21.17c8.99,0,15.82-1.64,20.48-4.92,4.66-3.28,6.99-8.5,6.99-15.65s-2.1-12.7-6.3-15.85c-4.2-3.15-10.76-4.73-19.69-4.73h-22.64v41.15Zm0,18.31v41.74h26.88c4.92,0,9.04-.59,12.35-1.77,3.32-1.18,5.97-2.76,7.97-4.73,2-1.97,3.45-4.27,4.33-6.89.88-2.62,1.33-5.42,1.33-8.37s-.49-5.86-1.48-8.32-2.53-4.56-4.63-6.3c-2.1-1.74-4.79-3.07-8.07-3.99-3.28-.92-7.25-1.38-11.91-1.38h-26.78Z"/>
    <path class="cls-1" d="m419.05,671.71h-20.48c-2.3,0-4.18-.57-5.66-1.72-1.48-1.15-2.54-2.57-3.2-4.28l-10.63-29.04h-58.97l-10.63,29.04c-.53,1.51-1.56,2.89-3.1,4.14-1.54,1.25-3.43,1.87-5.66,1.87h-20.58l55.92-142.36h27.07l55.92,142.36Zm-92.15-53.75h45.39l-17.33-47.35c-.79-2.1-1.66-4.58-2.61-7.43-.95-2.85-1.89-5.96-2.81-9.3-.92,3.35-1.82,6.47-2.71,9.35-.89,2.89-1.76,5.42-2.61,7.58l-17.33,47.16Z"/>
    <path class="cls-1" d="m454.49,529.49c.79.1,1.49.3,2.12.59.62.3,1.23.72,1.82,1.28.59.56,1.25,1.3,1.97,2.21l74.72,95.2c-.26-2.3-.44-4.54-.54-6.74-.1-2.2-.15-4.25-.15-6.15v-86.54h23.33v142.36h-13.68c-2.1,0-3.84-.33-5.22-.98-1.38-.65-2.72-1.84-4.04-3.55l-74.43-94.81c.2,2.1.34,4.18.44,6.25.1,2.07.15,3.96.15,5.66v87.42h-23.33v-142.36h13.88c1.18,0,2.17.05,2.95.15Z"/>
    <path class="cls-1" d="m653.76,616.38v55.33h-26.48v-55.33l-51.88-87.03h23.33c2.3,0,4.12.56,5.46,1.67,1.35,1.12,2.48,2.53,3.4,4.23l26.09,47.55c1.51,2.82,2.82,5.5,3.94,8.02,1.12,2.53,2.13,5.01,3.05,7.43.85-2.49,1.82-5,2.9-7.53,1.08-2.53,2.38-5.17,3.89-7.93l25.89-47.55c.72-1.44,1.8-2.79,3.25-4.04,1.44-1.25,3.28-1.87,5.51-1.87h23.43l-51.79,87.03Z"/>
    <path class="cls-1" d="m836.58,671.71h-20.48c-2.3,0-4.18-.57-5.66-1.72-1.48-1.15-2.54-2.57-3.2-4.28l-10.63-29.04h-58.97l-10.63,29.04c-.53,1.51-1.56,2.89-3.1,4.14-1.54,1.25-3.43,1.87-5.66,1.87h-20.58l55.92-142.36h27.07l55.92,142.36Zm-92.15-53.75h45.39l-17.33-47.35c-.79-2.1-1.66-4.58-2.61-7.43-.95-2.85-1.89-5.96-2.81-9.3-.92,3.35-1.82,6.47-2.71,9.35-.89,2.89-1.76,5.42-2.61,7.58l-17.33,47.16Z"/>
    <path class="cls-1" d="m872.02,529.49c.79.1,1.49.3,2.12.59.62.3,1.23.72,1.82,1.28.59.56,1.25,1.3,1.97,2.21l74.72,95.2c-.26-2.3-.44-4.54-.54-6.74-.1-2.2-.15-4.25-.15-6.15v-86.54h23.33v142.36h-13.68c-2.1,0-3.84-.33-5.22-.98-1.38-.65-2.72-1.84-4.04-3.55l-74.43-94.81c.2,2.1.34,4.18.44,6.25.1,2.07.15,3.96.15,5.66v87.42h-23.33v-142.36h13.88c1.18,0,2.17.05,2.95.15Z"/>
  </g>
</svg>